<svg xmlns="http://www.w3.org/2000/svg" xmlns:xlink="http://www.w3.org/1999/xlink" width="800" zoomAndPan="magnify" viewBox="0 0 600 449.999984" height="600" preserveAspectRatio="xMidYMid meet" version="1.2"><defs><filter x="0%" y="0%" width="100%" filterUnits="objectBoundingBox" id="422f12d60d" height="100%"><feColorMatrix values="0 0 0 0 1 0 0 0 0 1 0 0 0 0 1 0 0 0 1 0" type="matrix" in="SourceGraphic"/></filter><clipPath id="6db8bd59a1"><path d="M 13.332031 13.285156 L 148.332031 13.285156 L 148.332031 129.300781 L 13.332031 129.300781 Z M 13.332031 13.285156 "/></clipPath><clipPath id="4ff8f69a36"><path d="M 148.332031 71.292969 L 114.582031 129.300781 L 47.082031 129.300781 L 13.332031 71.292969 L 47.082031 13.285156 L 114.582031 13.285156 Z M 148.332031 71.292969 "/></clipPath><clipPath id="acf01d17fa"><rect x="0" width="162" y="0" height="143"/></clipPath><clipPath id="bfbb93775c"><path d="M 12.855469 13.277344 L 147.855469 13.277344 L 147.855469 129.292969 L 12.855469 129.292969 Z M 12.855469 13.277344 "/></clipPath><clipPath id="8bc79c96be"><path d="M 147.855469 71.285156 L 114.105469 129.292969 L 46.605469 129.292969 L 12.855469 71.285156 L 46.605469 13.277344 L 114.105469 13.277344 Z M 147.855469 71.285156 "/></clipPath><clipPath id="5ced0f1a04"><rect x="0" width="161" y="0" height="142"/></clipPath><clipPath id="5f9a80d9e2"><path d="M 12.855469 13.648438 L 147.855469 13.648438 L 147.855469 129.664062 L 12.855469 129.664062 Z M 12.855469 13.648438 "/></clipPath><clipPath id="5e86971fa9"><path d="M 147.855469 71.65625 L 114.105469 129.664062 L 46.605469 129.664062 L 12.855469 71.65625 L 46.605469 13.648438 L 114.105469 13.648438 Z M 147.855469 71.65625 "/></clipPath><clipPath id="93abd858a6"><rect x="0" width="161" y="0" height="143"/></clipPath><clipPath id="61d9a16e0a"><path d="M 12.894531 12.960938 L 147.894531 12.960938 L 147.894531 128.976562 L 12.894531 128.976562 Z M 12.894531 12.960938 "/></clipPath><clipPath id="a111015e8d"><path d="M 147.894531 70.96875 L 114.144531 128.976562 L 46.644531 128.976562 L 12.894531 70.96875 L 46.644531 12.960938 L 114.144531 12.960938 Z M 147.894531 70.96875 "/></clipPath><clipPath id="d1e66c852f"><rect x="0" width="161" y="0" height="142"/></clipPath><clipPath id="20ed35898c"><path d="M 12.804688 13.34375 L 147.804688 13.34375 L 147.804688 129.359375 L 12.804688 129.359375 Z M 12.804688 13.34375 "/></clipPath><clipPath id="043fc54c97"><path d="M 147.804688 71.351562 L 114.054688 129.359375 L 46.554688 129.359375 L 12.804688 71.351562 L 46.554688 13.34375 L 114.054688 13.34375 Z M 147.804688 71.351562 "/></clipPath><clipPath id="552a891d9b"><rect x="0" width="161" y="0" height="143"/></clipPath><clipPath id="18ac8b7522"><path d="M 13.332031 13.335938 L 148.332031 13.335938 L 148.332031 129.351562 L 13.332031 129.351562 Z M 13.332031 13.335938 "/></clipPath><clipPath id="37dce3e3b1"><path d="M 148.332031 71.34375 L 114.582031 129.351562 L 47.082031 129.351562 L 13.332031 71.34375 L 47.082031 13.335938 L 114.582031 13.335938 Z M 148.332031 71.34375 "/></clipPath><clipPath id="a3eb2ce13c"><rect x="0" width="162" y="0" height="143"/></clipPath><clipPath id="5bba486221"><path d="M 13.332031 12.707031 L 148.332031 12.707031 L 148.332031 128.722656 L 13.332031 128.722656 Z M 13.332031 12.707031 "/></clipPath><clipPath id="efc81497f9"><path d="M 148.332031 70.714844 L 114.582031 128.722656 L 47.082031 128.722656 L 13.332031 70.714844 L 47.082031 12.707031 L 114.582031 12.707031 Z M 148.332031 70.714844 "/></clipPath><clipPath id="8986a141fb"><rect x="0" width="162" y="0" height="142"/></clipPath><clipPath id="ef8ef5b2c0"><path d="M 13.367188 13.023438 L 148.367188 13.023438 L 148.367188 129.039062 L 13.367188 129.039062 Z M 13.367188 13.023438 "/></clipPath><clipPath id="f12cb6cb6a"><path d="M 148.367188 71.03125 L 114.617188 129.039062 L 47.117188 129.039062 L 13.367188 71.03125 L 47.117188 13.023438 L 114.617188 13.023438 Z M 148.367188 71.03125 "/></clipPath><clipPath id="f81dc941ec"><rect x="0" width="162" y="0" height="142"/></clipPath><clipPath id="7b152c7962"><path d="M 12.894531 13.015625 L 147.894531 13.015625 L 147.894531 129.03125 L 12.894531 129.03125 Z M 12.894531 13.015625 "/></clipPath><clipPath id="08b05e8818"><path d="M 147.894531 71.023438 L 114.144531 129.03125 L 46.644531 129.03125 L 12.894531 71.023438 L 46.644531 13.015625 L 114.144531 13.015625 Z M 147.894531 71.023438 "/></clipPath><clipPath id="be05ea4c0b"><rect x="0" width="161" y="0" height="142"/></clipPath><clipPath id="bcad1aa3d7"><path d="M 12.894531 13.386719 L 147.894531 13.386719 L 147.894531 129.402344 L 12.894531 129.402344 Z M 12.894531 13.386719 "/></clipPath><clipPath id="e3a35b89f2"><path d="M 147.894531 71.394531 L 114.144531 129.402344 L 46.644531 129.402344 L 12.894531 71.394531 L 46.644531 13.386719 L 114.144531 13.386719 Z M 147.894531 71.394531 "/></clipPath><clipPath id="9be183ea4e"><rect x="0" width="161" y="0" height="142"/></clipPath><clipPath id="b6154a1320"><path d="M 13.105469 12.597656 L 148.105469 12.597656 L 148.105469 128.613281 L 13.105469 128.613281 Z M 13.105469 12.597656 "/></clipPath><clipPath id="29a232c3ec"><path d="M 148.105469 70.605469 L 114.355469 128.613281 L 46.855469 128.613281 L 13.105469 70.605469 L 46.855469 12.597656 L 114.355469 12.597656 Z M 148.105469 70.605469 "/></clipPath><clipPath id="45952bd1d5"><rect x="0" width="161" y="0" height="142"/></clipPath><clipPath id="ca009e5e41"><path d="M 13.105469 12.96875 L 148.105469 12.96875 L 148.105469 128.984375 L 13.105469 128.984375 Z M 13.105469 12.96875 "/></clipPath><clipPath id="c14c2c9dc7"><path d="M 148.105469 70.976562 L 114.355469 128.984375 L 46.855469 128.984375 L 13.105469 70.976562 L 46.855469 12.96875 L 114.355469 12.96875 Z M 148.105469 70.976562 "/></clipPath><clipPath id="6b0e611f7a"><rect x="0" width="161" y="0" height="142"/></clipPath></defs><g id="fedd40bd7d"><g mask="url(#70efd7b211)" transform="matrix(1,0,0,1,166,60)"><g clip-path="url(#acf01d17fa)"><g clip-rule="nonzero" clip-path="url(#6db8bd59a1)"><g clip-rule="nonzero" clip-path="url(#4ff8f69a36)"><path style="fill:none;stroke-width:8;stroke-linecap:butt;stroke-linejoin:miter;stroke:#7f3a99;stroke-opacity:1;stroke-miterlimit:4;" d="M 180.002245 77.345254 L 135.002241 154.68901 L 45.002234 154.68901 L 0.00223066 77.345254 L 45.002234 0.0014984 L 135.002241 0.0014984 Z M 180.002245 77.345254 " transform="matrix(0.75,0,0,0.75,13.330358,13.284032)"/></g></g></g><mask id="70efd7b211"><g filter="url(#422f12d60d)"><rect x="0" width="600" y="0" height="449.999984" style="fill:#000000;fill-opacity:0.61;stroke:none;"/></g></mask></g><g mask="url(#a2517a56dd)" transform="matrix(1,0,0,1,273,2)"><g clip-path="url(#5ced0f1a04)"><g clip-rule="nonzero" clip-path="url(#bfbb93775c)"><g clip-rule="nonzero" clip-path="url(#8bc79c96be)"><path style="fill:none;stroke-width:8;stroke-linecap:butt;stroke-linejoin:miter;stroke:#7f3a99;stroke-opacity:1;stroke-miterlimit:4;" d="M 179.997803 77.345246 L 134.997799 154.689002 L 44.997792 154.689002 L -0.00221132 77.345246 L 44.997792 0.00148989 L 134.997799 0.00148989 Z M 179.997803 77.345246 " transform="matrix(0.75,0,0,0.75,12.857127,13.276226)"/></g></g></g><mask id="a2517a56dd"><g filter="url(#422f12d60d)"><rect x="0" width="600" y="0" height="449.999984" style="fill:#000000;fill-opacity:0.61;stroke:none;"/></g></mask></g><g mask="url(#ebb84a175b)" transform="matrix(1,0,0,1,273,123)"><g clip-path="url(#93abd858a6)"><g clip-rule="nonzero" clip-path="url(#5f9a80d9e2)"><g clip-rule="nonzero" clip-path="url(#5e86971fa9)"><path style="fill:none;stroke-width:8;stroke-linecap:butt;stroke-linejoin:miter;stroke:#7f3a99;stroke-opacity:1;stroke-miterlimit:4;" d="M 179.997803 77.343034 L 134.997799 154.68679 L 44.997792 154.68679 L -0.00221132 77.343034 L 44.997792 -0.000721622 L 134.997799 -0.000721622 Z M 179.997803 77.343034 " transform="matrix(0.75,0,0,0.75,12.857127,13.648979)"/></g></g></g><mask id="ebb84a175b"><g filter="url(#422f12d60d)"><rect x="0" width="600" y="0" height="449.999984" style="fill:#000000;fill-opacity:0.61;stroke:none;"/></g></mask></g><g mask="url(#7f07ebd202)" transform="matrix(1,0,0,1,380,63)"><g clip-path="url(#d1e66c852f)"><g clip-rule="nonzero" clip-path="url(#61d9a16e0a)"><g clip-rule="nonzero" clip-path="url(#a111015e8d)"><path style="fill:none;stroke-width:8;stroke-linecap:butt;stroke-linejoin:miter;stroke:#7f3a99;stroke-opacity:1;stroke-miterlimit:4;" d="M 180.002306 77.341528 L 135.002302 154.685284 L 45.002295 154.685284 L 0.00229187 77.341528 L 45.002295 -0.00222851 L 135.002302 -0.00222851 Z M 180.002306 77.341528 " transform="matrix(0.75,0,0,0.75,12.892812,12.962609)"/></g></g></g><mask id="7f07ebd202"><g filter="url(#422f12d60d)"><rect x="0" width="600" y="0" height="449.999984" style="fill:#000000;fill-opacity:0.61;stroke:none;"/></g></mask></g><g mask="url(#881d3d4f47)" transform="matrix(1,0,0,1,60,242)"><g clip-path="url(#552a891d9b)"><g clip-rule="nonzero" clip-path="url(#20ed35898c)"><g clip-rule="nonzero" clip-path="url(#043fc54c97)"><path style="fill:none;stroke-width:8;stroke-linecap:butt;stroke-linejoin:miter;stroke:#7f3a99;stroke-opacity:1;stroke-miterlimit:4;" d="M 180.001498 77.344538 L 135.001494 154.688294 L 45.001487 154.688294 L 0.00148382 77.344538 L 45.001487 0.000781611 L 135.001494 0.000781611 Z M 180.001498 77.344538 " transform="matrix(0.75,0,0,0.75,12.803575,13.343164)"/></g></g></g><mask id="881d3d4f47"><g filter="url(#422f12d60d)"><rect x="0" width="600" y="0" height="449.999984" style="fill:#000000;fill-opacity:0.61;stroke:none;"/></g></mask></g><g mask="url(#b4f4d0510e)" transform="matrix(1,0,0,1,166,184)"><g clip-path="url(#a3eb2ce13c)"><g clip-rule="nonzero" clip-path="url(#18ac8b7522)"><g clip-rule="nonzero" clip-path="url(#37dce3e3b1)"><path style="fill:none;stroke-width:8;stroke-linecap:butt;stroke-linejoin:miter;stroke:#7f3a99;stroke-opacity:1;stroke-miterlimit:4;" d="M 180.002245 77.344532 L 135.002241 154.688288 L 45.002234 154.688288 L 0.00223066 77.344532 L 45.002234 0.000775667 L 135.002241 0.000775667 Z M 180.002245 77.344532 " transform="matrix(0.75,0,0,0.75,13.330358,13.335356)"/></g></g></g><mask id="b4f4d0510e"><g filter="url(#422f12d60d)"><rect x="0" width="600" y="0" height="449.999984" style="fill:#000000;fill-opacity:0.61;stroke:none;"/></g></mask></g><g mask="url(#ee798eca8d)" transform="matrix(1,0,0,1,166,306)"><g clip-path="url(#8986a141fb)"><g clip-rule="nonzero" clip-path="url(#5bba486221)"><g clip-rule="nonzero" clip-path="url(#efc81497f9)"><path style="fill:none;stroke-width:8;stroke-linecap:butt;stroke-linejoin:miter;stroke:#7f3a99;stroke-opacity:1;stroke-miterlimit:4;" d="M 180.002245 77.342318 L 135.002241 154.686074 L 45.002234 154.686074 L 0.00223066 77.342318 L 45.002234 -0.00143841 L 135.002241 -0.00143841 Z M 180.002245 77.342318 " transform="matrix(0.75,0,0,0.75,13.330358,12.70811)"/></g></g></g><mask id="ee798eca8d"><g filter="url(#422f12d60d)"><rect x="0" width="600" y="0" height="449.999984" style="fill:#000000;fill-opacity:0.61;stroke:none;"/></g></mask></g><g mask="url(#fad1bab209)" transform="matrix(1,0,0,1,273,245)"><g clip-path="url(#f81dc941ec)"><g clip-rule="nonzero" clip-path="url(#ef8ef5b2c0)"><g clip-rule="nonzero" clip-path="url(#f12cb6cb6a)"><path style="fill:none;stroke-width:8;stroke-linecap:butt;stroke-linejoin:miter;stroke:#7f3a99;stroke-opacity:1;stroke-miterlimit:4;" d="M 180.0015 77.346009 L 135.001497 154.689765 L 45.00149 154.689765 L 0.00148648 77.346009 L 45.00149 0.00225344 L 135.001497 0.00225344 Z M 180.0015 77.346009 " transform="matrix(0.75,0,0,0.75,13.366073,13.021747)"/></g></g></g><mask id="fad1bab209"><g filter="url(#422f12d60d)"><rect x="0" width="600" y="0" height="449.999984" style="fill:#000000;fill-opacity:0.61;stroke:none;"/></g></mask></g><g mask="url(#da5757bcf8)" transform="matrix(1,0,0,1,380,187)"><g clip-path="url(#be05ea4c0b)"><g clip-rule="nonzero" clip-path="url(#7b152c7962)"><g clip-rule="nonzero" clip-path="url(#08b05e8818)"><path style="fill:none;stroke-width:8;stroke-linecap:butt;stroke-linejoin:miter;stroke:#7f3a99;stroke-opacity:1;stroke-miterlimit:4;" d="M 180.002306 77.346004 L 135.002302 154.68976 L 45.002295 154.68976 L 0.00229187 77.346004 L 45.002295 0.00224749 L 135.002302 0.00224749 Z M 180.002306 77.346004 " transform="matrix(0.75,0,0,0.75,12.892812,13.013939)"/></g></g></g><mask id="da5757bcf8"><g filter="url(#422f12d60d)"><rect x="0" width="600" y="0" height="449.999984" style="fill:#000000;fill-opacity:0.61;stroke:none;"/></g></mask></g><g mask="url(#572354a288)" transform="matrix(1,0,0,1,380,308)"><g clip-path="url(#9be183ea4e)"><g clip-rule="nonzero" clip-path="url(#bcad1aa3d7)"><g clip-rule="nonzero" clip-path="url(#e3a35b89f2)"><path style="fill:none;stroke-width:8;stroke-linecap:butt;stroke-linejoin:miter;stroke:#7f3a99;stroke-opacity:1;stroke-miterlimit:4;" d="M 180.002306 77.343789 L 135.002302 154.687545 L 45.002295 154.687545 L 0.00229187 77.343789 L 45.002295 0.0000334166 L 135.002302 0.0000334166 Z M 180.002306 77.343789 " transform="matrix(0.75,0,0,0.75,12.892812,13.386694)"/></g></g></g><mask id="572354a288"><g filter="url(#422f12d60d)"><rect x="0" width="600" y="0" height="449.999984" style="fill:#000000;fill-opacity:0.61;stroke:none;"/></g></mask></g><g mask="url(#377924aa0b)" transform="matrix(1,0,0,1,59,0)"><g clip-path="url(#45952bd1d5)"><g clip-rule="nonzero" clip-path="url(#b6154a1320)"><g clip-rule="nonzero" clip-path="url(#29a232c3ec)"><path style="fill:none;stroke-width:8;stroke-linecap:butt;stroke-linejoin:miter;stroke:#7f3a99;stroke-opacity:1;stroke-miterlimit:4;" d="M 179.997771 77.343757 L 134.997767 154.687513 L 44.99776 154.687513 L -0.00224344 77.343757 L 44.99776 0.00000142829 L 134.997767 0.00000142829 Z M 179.997771 77.343757 " transform="matrix(0.75,0,0,0.75,13.107151,12.597655)"/></g></g></g><mask id="377924aa0b"><g filter="url(#422f12d60d)"><rect x="0" width="600" y="0" height="449.999984" style="fill:#000000;fill-opacity:0.61;stroke:none;"/></g></mask></g><g mask="url(#afba6e9ae9)" transform="matrix(1,0,0,1,59,121)"><g clip-path="url(#6b0e611f7a)"><g clip-rule="nonzero" clip-path="url(#ca009e5e41)"><g clip-rule="nonzero" clip-path="url(#c14c2c9dc7)"><path style="fill:none;stroke-width:8;stroke-linecap:butt;stroke-linejoin:miter;stroke:#7f3a99;stroke-opacity:1;stroke-miterlimit:4;" d="M 179.997771 77.341543 L 134.997767 154.685299 L 44.99776 154.685299 L -0.00224344 77.341543 L 44.99776 -0.00221265 L 134.997767 -0.00221265 Z M 179.997771 77.341543 " transform="matrix(0.75,0,0,0.75,13.107151,12.970409)"/></g></g></g><mask id="afba6e9ae9"><g filter="url(#422f12d60d)"><rect x="0" width="600" y="0" height="449.999984" style="fill:#000000;fill-opacity:0.61;stroke:none;"/></g></mask></g></g></svg>