<svg xmlns="http://www.w3.org/2000/svg" xmlns:xlink="http://www.w3.org/1999/xlink" width="500" zoomAndPan="magnify" viewBox="0 0 375 374.999991" height="500" preserveAspectRatio="xMidYMid meet" version="1.2"><defs><clipPath id="cea0e9ef63"><path d="M 68 59 L 323 59 L 323 324 L 68 324 Z M 68 59 "/></clipPath><clipPath id="53bb6710ce"><path d="M 8.765625 254.214844 L 139.859375 2.847656 L 365.960938 120.761719 L 234.867188 372.128906 Z M 8.765625 254.214844 "/></clipPath><clipPath id="94b5522a66"><path d="M 8.765625 254.214844 L 139.859375 2.847656 L 365.960938 120.761719 L 234.867188 372.128906 Z M 8.765625 254.214844 "/></clipPath><clipPath id="315d10e3ce"><path d="M 91 154 L 273 154 L 273 277 L 91 277 Z M 91 154 "/></clipPath><clipPath id="b796504500"><path d="M 8.765625 254.214844 L 139.859375 2.847656 L 365.960938 120.761719 L 234.867188 372.128906 Z M 8.765625 254.214844 "/></clipPath><clipPath id="78e7f8fdbb"><path d="M 8.765625 254.214844 L 139.859375 2.847656 L 365.960938 120.761719 L 234.867188 372.128906 Z M 8.765625 254.214844 "/></clipPath><clipPath id="5776cc8662"><path d="M 142 183 L 198 183 L 198 202 L 142 202 Z M 142 183 "/></clipPath><clipPath id="a0662dda78"><path d="M 8.765625 254.214844 L 139.859375 2.847656 L 365.960938 120.761719 L 234.867188 372.128906 Z M 8.765625 254.214844 "/></clipPath><clipPath id="6e11b4a6e3"><path d="M 8.765625 254.214844 L 139.859375 2.847656 L 365.960938 120.761719 L 234.867188 372.128906 Z M 8.765625 254.214844 "/></clipPath><clipPath id="5ab1fba0c1"><path d="M 100 74 L 294 74 L 294 304 L 100 304 Z M 100 74 "/></clipPath><clipPath id="6d28ca6184"><path d="M 8.765625 254.214844 L 139.859375 2.847656 L 365.960938 120.761719 L 234.867188 372.128906 Z M 8.765625 254.214844 "/></clipPath><clipPath id="2812053714"><path d="M 8.765625 254.214844 L 139.859375 2.847656 L 365.960938 120.761719 L 234.867188 372.128906 Z M 8.765625 254.214844 "/></clipPath><clipPath id="2f4cd326d5"><path d="M 122 98 L 248 98 L 248 140 L 122 140 Z M 122 98 "/></clipPath><clipPath id="af416723b7"><path d="M 8.765625 254.214844 L 139.859375 2.847656 L 365.960938 120.761719 L 234.867188 372.128906 Z M 8.765625 254.214844 "/></clipPath><clipPath id="2783197c39"><path d="M 8.765625 254.214844 L 139.859375 2.847656 L 365.960938 120.761719 L 234.867188 372.128906 Z M 8.765625 254.214844 "/></clipPath><clipPath id="bae32996bb"><path d="M 121.222656 144 L 250 144 L 250 277.480469 L 121.222656 277.480469 Z M 121.222656 144 "/></clipPath></defs><g id="0f1a3a1a57"><g clip-rule="nonzero" clip-path="url(#cea0e9ef63)"><g clip-rule="nonzero" clip-path="url(#53bb6710ce)"><g clip-rule="nonzero" clip-path="url(#94b5522a66)"><path style=" stroke:none;fill-rule:nonzero;fill:#6e439e;fill-opacity:1;" d="M 301.511719 119.742188 L 301.503906 120.175781 C 301.300781 127.847656 303.324219 135.414062 307.328125 141.964844 L 316.8125 157.480469 C 326.917969 174.019531 323.636719 195.4375 309.039062 208.191406 L 296.363281 219.261719 C 288.128906 226.457031 283.214844 236.726562 282.785156 247.65625 L 282.261719 260.976562 C 281.371094 283.539062 261.90625 300.839844 239.398438 299.074219 L 232.3125 298.515625 C 224.761719 297.925781 217.199219 299.5 210.515625 303.058594 L 180.84375 318.84375 C 163.023438 328.324219 140.929688 322.960938 129.441406 306.359375 L 117.757812 289.472656 C 115.675781 286.464844 113.1875 283.757812 110.367188 281.429688 L 83.003906 258.84375 C 70.082031 248.179688 65.226562 230.5625 70.859375 214.785156 L 78.234375 194.132812 C 80.886719 186.695312 81.269531 178.640625 79.332031 170.988281 L 75.429688 155.574219 C 70.945312 137.859375 79.105469 119.363281 95.222656 110.738281 L 126.542969 93.96875 C 130.542969 91.828125 134.148438 89.015625 137.203125 85.660156 L 149.109375 72.5625 C 164.078125 56.101562 189.632812 55.113281 205.824219 70.367188 C 214.117188 78.179688 225.359375 82.058594 236.707031 81.03125 L 258.144531 79.082031 C 281.855469 76.925781 302.136719 95.941406 301.511719 119.742188 Z M 301.511719 119.742188 "/></g></g></g><g clip-rule="nonzero" clip-path="url(#315d10e3ce)"><g clip-rule="nonzero" clip-path="url(#b796504500)"><g clip-rule="nonzero" clip-path="url(#78e7f8fdbb)"><path style=" stroke:none;fill-rule:nonzero;fill:#6e439e;fill-opacity:1;" d="M 271.871094 184.992188 C 275.375 203.691406 266.878906 222.847656 255.675781 237.441406 C 243.644531 253.164062 227.359375 265.378906 208.488281 271.601562 C 189.761719 277.78125 169.199219 277.460938 150.613281 270.867188 C 137.082031 266.054688 124.953125 257.753906 115.738281 246.867188 C 112.714844 244.144531 109.9375 241.230469 107.414062 238.011719 C 95.476562 222.699219 88.589844 201.675781 93.035156 182.339844 C 95.277344 172.519531 101.191406 163.46875 110.289062 158.761719 C 119.03125 154.214844 129.089844 154.453125 137.472656 159.730469 C 145.546875 164.796875 150.960938 172.820312 158.386719 178.621094 C 165.253906 183.988281 173.003906 184.34375 181.023438 181.46875 C 198.355469 175.292969 209.964844 158.277344 228.773438 155.21875 C 248.417969 152.007812 268.171875 165.261719 271.871094 184.992188 Z M 271.871094 184.992188 "/></g></g></g><g clip-rule="nonzero" clip-path="url(#5776cc8662)"><g clip-rule="nonzero" clip-path="url(#a0662dda78)"><g clip-rule="nonzero" clip-path="url(#6e11b4a6e3)"><path style=" stroke:none;fill-rule:nonzero;fill:#6e439e;fill-opacity:1;" d="M 167.160156 190.140625 C 170.078125 189.3125 172.90625 191.34375 173.722656 194.082031 C 174.105469 195.375 173.792969 197.042969 173.109375 198.179688 C 172.316406 199.5 171.175781 200.128906 169.78125 200.644531 C 168.585938 201.085938 167.175781 201.292969 165.890625 201.40625 C 164.425781 201.53125 162.953125 201.605469 161.484375 201.472656 C 159.246094 201.273438 156.992188 200.824219 154.878906 200.042969 C 150.261719 198.335938 146.46875 195.417969 143.550781 191.476562 C 141.941406 189.300781 142.988281 186.007812 144.925781 184.5 C 145.914062 183.734375 147.019531 183.371094 148.261719 183.324219 C 149.417969 183.28125 151.289062 183.941406 152.027344 184.890625 C 153.957031 187.367188 156.273438 189.175781 159.289062 190.109375 C 159.84375 190.28125 160.40625 190.394531 160.96875 190.519531 C 160.679688 190.441406 160.574219 190.386719 161.351562 190.597656 C 161.3125 190.59375 161.273438 190.589844 161.230469 190.582031 C 161.335938 190.605469 161.445312 190.625 161.550781 190.65625 C 161.46875 190.632812 161.417969 190.617188 161.351562 190.597656 C 161.363281 190.601562 161.378906 190.605469 161.390625 190.605469 C 161.796875 190.652344 162.203125 190.683594 162.609375 190.707031 C 163.046875 190.726562 163.484375 190.722656 163.921875 190.730469 C 163.992188 190.726562 164.03125 190.726562 164.078125 190.726562 C 164.292969 190.703125 164.507812 190.679688 164.71875 190.652344 C 165.125 190.605469 165.535156 190.546875 165.9375 190.476562 C 165.945312 190.449219 167.066406 190.167969 167.160156 190.140625 Z M 193.628906 189.074219 C 193.632812 189.074219 193.632812 189.074219 193.632812 189.074219 C 193.632812 189.074219 193.632812 189.074219 193.628906 189.074219 C 193.601562 189.0625 193.566406 189.066406 193.539062 189.054688 C 193.242188 189.003906 192.949219 188.949219 192.65625 188.898438 C 193.648438 189.035156 193.953125 189.074219 193.480469 189.003906 C 193.191406 188.964844 192.898438 188.925781 192.609375 188.890625 C 192.28125 188.832031 191.949219 188.769531 191.621094 188.710938 C 190.914062 188.5 190.210938 188.476562 189.507812 188.640625 C 188.773438 188.683594 188.089844 188.910156 187.457031 189.324219 C 186.824219 189.675781 186.324219 190.152344 185.949219 190.757812 C 185.488281 191.285156 185.179688 191.898438 185.023438 192.597656 C 184.964844 193.0625 184.90625 193.527344 184.851562 193.988281 C 184.863281 194.984375 185.125 195.90625 185.632812 196.757812 C 185.925781 197.125 186.21875 197.488281 186.511719 197.855469 C 187.195312 198.507812 187.992188 198.953125 188.90625 199.195312 C 189.691406 199.3125 190.472656 199.429688 191.257812 199.550781 C 190.792969 199.480469 190.332031 199.410156 189.871094 199.339844 C 191.007812 199.699219 192.15625 199.757812 193.3125 199.519531 C 194.261719 199.289062 195.089844 198.839844 195.796875 198.167969 C 197.175781 196.847656 197.765625 194.855469 197.324219 193 C 197.179688 192.269531 196.867188 191.628906 196.386719 191.078125 C 196.019531 190.476562 195.523438 190 194.894531 189.644531 C 194.492188 189.398438 194.070312 189.207031 193.628906 189.074219 Z M 193.628906 189.074219 "/></g></g></g><g clip-rule="nonzero" clip-path="url(#5ab1fba0c1)"><g clip-rule="nonzero" clip-path="url(#6d28ca6184)"><g clip-rule="nonzero" clip-path="url(#2812053714)"><path style=" stroke:none;fill-rule:nonzero;fill:#6e439e;fill-opacity:1;" d="M 166.753906 130.40625 C 167.597656 130.714844 168.441406 131.023438 169.28125 131.328125 C 170.546875 131.925781 171.582031 132.78125 172.378906 133.898438 C 173.386719 134.894531 174.085938 136.089844 174.472656 137.484375 C 174.960938 138.847656 175.082031 140.230469 174.835938 141.625 C 174.828125 142.996094 174.476562 144.289062 173.789062 145.507812 C 172.933594 147.148438 171.730469 148.476562 170.183594 149.492188 C 169.332031 149.894531 168.480469 150.296875 167.632812 150.699219 C 165.820312 151.265625 163.988281 151.347656 162.136719 150.9375 C 161.292969 150.628906 160.453125 150.320312 159.609375 150.015625 C 158.34375 149.417969 157.308594 148.5625 156.511719 147.445312 C 155.503906 146.453125 154.804688 145.253906 154.417969 143.859375 C 153.929688 142.492188 153.808594 141.113281 154.054688 139.722656 C 154.066406 138.347656 154.414062 137.054688 155.101562 135.835938 C 155.957031 134.195312 157.160156 132.867188 158.707031 131.851562 C 159.558594 131.449219 160.410156 131.046875 161.257812 130.644531 C 163.070312 130.078125 164.902344 129.996094 166.753906 130.40625 Z M 222.574219 171.566406 C 216.046875 184.082031 235.878906 193.339844 242.386719 180.863281 C 248.914062 168.347656 229.078125 159.089844 222.574219 171.566406 Z M 168.933594 282.90625 C 168.558594 282.738281 168.179688 282.609375 167.796875 282.503906 C 167.753906 282.488281 167.710938 282.472656 167.671875 282.460938 C 167.617188 282.449219 167.5625 282.445312 167.507812 282.4375 C 166.6875 282.242188 165.839844 282.164062 164.964844 282.238281 C 164.960938 282.242188 164.953125 282.242188 164.949219 282.242188 C 164.027344 282.289062 163.113281 282.460938 162.203125 282.757812 C 161.363281 282.996094 160.625 283.390625 159.933594 283.859375 C 159.847656 283.898438 159.761719 283.941406 159.675781 283.980469 C 158.863281 284.53125 158.15625 285.167969 157.539062 285.890625 C 156.972656 286.503906 156.496094 287.195312 156.132812 287.984375 C 155.835938 288.828125 155.539062 289.667969 155.242188 290.511719 C 154.890625 291.890625 154.902344 293.253906 155.277344 294.597656 C 155.417969 296.015625 155.914062 297.316406 156.761719 298.503906 C 157.359375 299.183594 157.953125 299.867188 158.546875 300.546875 C 159.554688 301.5 160.714844 302.148438 162.027344 302.492188 C 163.277344 303.054688 164.601562 303.277344 165.996094 303.160156 C 166.917969 302.988281 167.835938 302.816406 168.757812 302.644531 C 170.550781 302.046875 172.074219 301.042969 173.328125 299.632812 C 174.613281 298.234375 175.390625 296.691406 175.683594 295.015625 C 175.695312 294.972656 175.707031 294.929688 175.71875 294.890625 C 175.953125 293.972656 175.964844 293.066406 175.878906 292.167969 C 175.871094 291.246094 175.761719 290.328125 175.421875 289.421875 C 175.390625 289.304688 175.324219 289.210938 175.285156 289.097656 C 175.179688 288.777344 175.027344 288.464844 174.878906 288.15625 C 174.722656 287.832031 174.566406 287.507812 174.367188 287.210938 C 174.300781 287.109375 174.269531 286.996094 174.199219 286.894531 C 173.898438 286.554688 173.601562 286.214844 173.304688 285.871094 C 173.058594 285.539062 172.789062 285.238281 172.503906 284.957031 C 172.472656 284.921875 172.441406 284.886719 172.414062 284.851562 C 172.335938 284.78125 172.253906 284.722656 172.179688 284.65625 C 172.039062 284.53125 171.898438 284.410156 171.753906 284.296875 C 171.628906 284.203125 171.5 284.117188 171.375 284.027344 C 171.234375 283.933594 171.09375 283.839844 170.949219 283.753906 C 170.792969 283.660156 170.632812 283.578125 170.472656 283.5 C 170.378906 283.453125 170.292969 283.394531 170.195312 283.351562 C 170.152344 283.335938 170.109375 283.320312 170.070312 283.308594 C 169.703125 283.148438 169.328125 283.007812 168.933594 282.90625 Z M 239.917969 232.511719 C 234.40625 243.078125 250.328125 252.652344 255.867188 242.027344 C 261.378906 231.460938 245.457031 221.886719 239.917969 232.511719 Z M 258.964844 117.117188 L 254.800781 118.398438 C 252.003906 119.695312 249.722656 121.609375 247.953125 124.136719 C 246.609375 125.941406 245.796875 127.933594 245.503906 130.113281 C 244.867188 132.195312 244.769531 134.328125 245.21875 136.507812 C 245.515625 138.773438 246.34375 140.796875 247.703125 142.574219 C 248.753906 144.609375 250.265625 146.253906 252.238281 147.515625 C 253.53125 148.179688 254.824219 148.84375 256.113281 149.503906 C 258.882812 150.480469 261.710938 150.730469 264.605469 150.253906 C 265.996094 149.824219 267.382812 149.398438 268.773438 148.972656 C 271.566406 147.671875 273.851562 145.757812 275.617188 143.230469 C 276.960938 141.429688 277.777344 139.4375 278.066406 137.257812 C 278.707031 135.171875 278.800781 133.042969 278.351562 130.863281 C 278.054688 128.597656 277.226562 126.574219 275.867188 124.792969 C 274.816406 122.761719 273.304688 121.113281 271.332031 119.851562 C 270.042969 119.1875 268.75 118.527344 267.457031 117.863281 C 264.6875 116.890625 261.859375 116.640625 258.964844 117.117188 Z M 278.035156 163.117188 C 273.046875 172.679688 287.078125 182.148438 292.113281 172.492188 C 297.101562 162.929688 283.074219 153.460938 278.035156 163.117188 Z M 192.695312 88.132812 C 197.71875 78.496094 183.558594 69.015625 178.484375 78.742188 C 173.460938 88.378906 187.621094 97.859375 192.695312 88.132812 Z M 116.316406 213.683594 C 114.421875 213.355469 112.550781 213.515625 110.699219 214.164062 C 108.726562 214.703125 107.035156 215.683594 105.632812 217.101562 C 104.035156 218.230469 102.816406 219.699219 101.976562 221.511719 C 101.558594 222.691406 101.136719 223.867188 100.714844 225.046875 C 100.171875 227.570312 100.277344 230.0625 101.035156 232.53125 C 101.585938 233.722656 102.140625 234.910156 102.695312 236.101562 C 104.132812 238.324219 106.027344 240.042969 108.378906 241.253906 C 108.550781 241.34375 108.71875 241.445312 108.898438 241.515625 C 110.59375 242.457031 112.394531 242.933594 114.296875 242.945312 C 116.191406 243.269531 118.0625 243.113281 119.914062 242.464844 C 121.882812 241.925781 123.574219 240.949219 124.980469 239.53125 C 126.574219 238.402344 127.792969 236.933594 128.632812 235.125 C 129.054688 233.949219 129.472656 232.769531 129.894531 231.59375 C 130.4375 229.070312 130.335938 226.578125 129.582031 224.109375 C 129.027344 222.921875 128.472656 221.730469 127.917969 220.542969 C 126.484375 218.320312 124.59375 216.601562 122.242188 215.390625 C 122.078125 215.28125 121.894531 215.199219 121.71875 215.109375 C 120.019531 214.167969 118.21875 213.691406 116.316406 213.683594 Z M 116.316406 213.683594 "/></g></g></g><g clip-rule="nonzero" clip-path="url(#2f4cd326d5)"><g clip-rule="nonzero" clip-path="url(#af416723b7)"><g clip-rule="nonzero" clip-path="url(#2783197c39)"><path style=" stroke:none;fill-rule:nonzero;fill:#6e439e;fill-opacity:1;" d="M 226.449219 113.402344 C 228.621094 121.441406 216.371094 125.671875 214.15625 117.597656 C 213.542969 115.363281 199.097656 121.269531 196.027344 121.242188 C 189.179688 121.183594 184.453125 116.777344 178.6875 113.816406 C 159.78125 104.117188 144.164062 124.230469 134.203125 137.460938 C 129.15625 144.160156 119.296875 135.675781 124.3125 129.035156 C 136.78125 112.53125 154.488281 93.203125 177.652344 99.394531 C 183.265625 100.898438 187.382812 105.589844 192.683594 107.203125 C 198.71875 109.035156 204.273438 104.46875 209.984375 103.707031 C 217.230469 102.738281 224.476562 106.09375 226.449219 113.402344 Z M 235.519531 109.550781 C 231.644531 116.972656 243.226562 122.859375 247.097656 115.441406 C 250.96875 108.015625 239.390625 102.128906 235.519531 109.550781 Z M 235.519531 109.550781 "/></g></g></g><path style=" stroke:none;fill-rule:nonzero;fill:#1c013b;fill-opacity:1;" d="M 224.160156 135.46875 C 222.167969 138.621094 220.164062 141.761719 218.148438 144.886719 C 215.390625 143.117188 212.15625 142.121094 208.789062 142.121094 C 207.027344 142.121094 205.265625 142.398438 203.574219 142.941406 C 195.085938 145.652344 190.082031 153.75 191.402344 162.632812 C 192.128906 167.578125 195.128906 171.785156 199.3125 174.390625 C 196.601562 178.59375 193.902344 182.777344 191.179688 186.945312 C 190.136719 188.546875 188.65625 188.730469 187.058594 187.710938 C 180.339844 183.414062 173.609375 179.117188 166.914062 174.773438 C 165.035156 173.558594 164.886719 172.234375 166.230469 170.164062 C 174.824219 156.714844 183.453125 143.277344 192.0625 129.851562 C 194.34375 126.296875 196.578125 122.730469 198.882812 119.195312 C 200.332031 116.984375 201.546875 116.75 203.785156 118.1875 C 210.1875 122.265625 216.59375 126.367188 222.988281 130.476562 C 225.398438 132.019531 225.675781 133.085938 224.160156 135.46875 "/><path style=" stroke:none;fill-rule:nonzero;fill:#1c013b;fill-opacity:1;" d="M 206.96875 113.542969 C 209.828125 109.152344 212.875 104.507812 215.898438 99.863281 C 217.171875 97.90625 218.390625 95.925781 219.6875 93.992188 C 221.078125 91.894531 222.15625 91.582031 224.191406 92.855469 C 228.722656 95.695312 233.195312 98.601562 237.675781 101.496094 C 239.378906 102.597656 239.691406 104.054688 238.613281 105.746094 C 234.351562 112.464844 230.054688 119.171875 225.828125 125.785156 C 219.558594 121.710938 213.421875 117.726562 206.96875 113.542969 "/><path style=" stroke:none;fill-rule:nonzero;fill:#1c013b;fill-opacity:1;" d="M 164.667969 179.8125 C 171.058594 183.902344 177.1875 187.816406 183.59375 191.90625 C 181.472656 195.113281 179.320312 198.449219 177.082031 201.726562 C 176.132812 203.117188 174.71875 203.371094 173.320312 202.492188 C 168.605469 199.539062 163.914062 196.550781 159.269531 193.503906 C 157.808594 192.542969 157.472656 191.140625 158.445312 189.589844 C 160.519531 186.296875 162.628906 183.007812 164.667969 179.8125 "/><g clip-rule="nonzero" clip-path="url(#bae32996bb)"><path style=" stroke:none;fill-rule:nonzero;fill:#1c013b;fill-opacity:1;" d="M 208.996094 167.058594 C 204.6875 167.128906 201.339844 164.011719 201.269531 159.863281 C 201.175781 155.601562 204.222656 152.347656 208.464844 152.242188 C 212.808594 152.152344 215.863281 155.070312 215.957031 159.472656 C 216.0625 163.582031 212.898438 167 208.996094 167.058594 Z M 238.730469 267.171875 C 235.9375 264.707031 232.914062 262.503906 229.71875 260.535156 C 227.910156 259.414062 226.011719 258.394531 224.101562 257.445312 C 223.511719 257.152344 222.917969 256.851562 222.292969 256.5625 C 226.082031 253.273438 230.019531 250.34375 233.136719 246.742188 C 249.5625 227.8125 253.742188 206.453125 244.800781 182.800781 C 240.664062 171.921875 233.832031 163.085938 224.402344 156.214844 C 223.453125 155.53125 222.628906 154.410156 222.097656 153.332031 C 218.910156 146.695312 211.394531 143.347656 204.398438 145.546875 C 197.191406 147.839844 192.988281 154.675781 194.109375 162.226562 C 195.164062 169.257812 201.664062 174.460938 209.191406 174.425781 C 210.535156 174.390625 212.34375 174.425781 213.222656 175.214844 C 224.597656 185.394531 229.824219 198.007812 226.601562 213.195312 C 222.039062 234.808594 202.789062 247.621094 181 243.972656 C 174.71875 242.894531 169.042969 240.324219 164.214844 235.632812 C 166.21875 235.632812 168.1875 235.691406 170.191406 235.597656 C 174.269531 235.46875 176.667969 233.234375 176.667969 229.691406 C 176.632812 225.972656 174.164062 223.734375 169.996094 223.734375 C 164.050781 223.699219 158.097656 223.699219 152.15625 223.699219 C 144 223.699219 135.859375 223.667969 127.714844 223.734375 C 123.996094 223.769531 121.136719 226.457031 121.136719 229.746094 C 121.136719 233.070312 123.636719 235.398438 127.484375 235.597656 C 129.488281 235.691406 131.527344 235.503906 133.496094 235.726562 C 134.410156 235.828125 135.558594 236.476562 136.019531 237.207031 C 140.363281 244.503906 146.109375 250.414062 153.011719 255.242188 C 153.441406 255.566406 153.859375 255.867188 154.355469 256.261719 C 153.640625 256.585938 152.910156 256.957031 152.214844 257.28125 C 149.261719 258.753906 146.433594 260.398438 143.710938 262.238281 C 142.390625 263.152344 141.082031 264.117188 139.832031 265.101562 C 139.148438 265.65625 138.417969 266.316406 137.699219 266.941406 C 137.179688 267.394531 136.449219 267.765625 136.355469 268.484375 C 136.253906 269.375 136.378906 270.382812 136.355469 271.308594 C 136.355469 273.242188 136.320312 275.1875 136.320312 277.160156 L 240.363281 277.160156 L 240.363281 268.875 C 240.339844 268.816406 240.339844 268.75 240.304688 268.714844 C 239.933594 268.054688 239.285156 267.695312 238.730469 267.171875 "/></g><path style="fill:none;stroke-width:18;stroke-linecap:round;stroke-linejoin:miter;stroke:#6e439e;stroke-opacity:1;stroke-miterlimit:4;" d="M 11.910644 11.553231 C 42.874956 22.424867 73.841242 22.413149 104.804311 11.518489 " transform="matrix(0.059445,-0.74764,0.74764,0.059445,31.08009,223.52669)"/><path style="fill:none;stroke-width:18;stroke-linecap:round;stroke-linejoin:miter;stroke:#6e439e;stroke-opacity:1;stroke-miterlimit:4;" d="M 12.922876 31.54291 C 42.709766 1.457434 72.491693 1.484559 102.273323 31.626597 " transform="matrix(-0.332976,-0.672032,0.672032,-0.332976,52.945009,294.461054)"/><path style="fill:none;stroke-width:18;stroke-linecap:round;stroke-linejoin:miter;stroke:#6e439e;stroke-opacity:1;stroke-miterlimit:4;" d="M 12.75627 21.679781 C 41.449401 4.754321 70.141124 4.773645 98.83584 21.734967 " transform="matrix(0.401066,-0.633755,0.633755,0.401066,26.624682,143.971354)"/><path style="fill:none;stroke-width:18;stroke-linecap:round;stroke-linejoin:miter;stroke:#6e439e;stroke-opacity:1;stroke-miterlimit:4;" d="M 11.016082 10.796644 C 46.110868 18.404309 81.206262 18.396967 116.305575 10.770595 " transform="matrix(0.579102,-0.476593,0.476593,0.579102,64.435899,91.962673)"/><path style="fill:none;stroke-width:18;stroke-linecap:round;stroke-linejoin:miter;stroke:#6e439e;stroke-opacity:1;stroke-miterlimit:4;" d="M 12.888497 24.467151 C 43.101176 3.823845 73.310541 3.84263 103.521878 24.533882 " transform="matrix(0.749978,0.00574034,-0.00574034,0.749978,130.404049,21.857441)"/><path style="fill:none;stroke-width:18;stroke-linecap:round;stroke-linejoin:miter;stroke:#6e439e;stroke-opacity:1;stroke-miterlimit:4;" d="M 11.766622 11.303192 C 32.085878 17.271664 52.406762 17.261512 72.724174 11.273791 " transform="matrix(0.734429,0.152035,-0.152035,0.734429,201.068926,30.769048)"/><path style="fill:none;stroke-width:18;stroke-linecap:round;stroke-linejoin:miter;stroke:#6e439e;stroke-opacity:1;stroke-miterlimit:4;" d="M 12.747514 36.619489 C 63.58428 0.338879 104.367801 -0.19841 135.098075 35.00762 " transform="matrix(0.57368,0.483106,-0.483106,0.57368,265.921072,22.560301)"/><path style="fill:none;stroke-width:18;stroke-linecap:round;stroke-linejoin:miter;stroke:#6e439e;stroke-opacity:1;stroke-miterlimit:4;" d="M 12.817501 26.310892 C 47.168894 3.209956 81.521455 3.229573 115.870024 26.370449 " transform="matrix(-0.101915,0.743043,-0.743043,-0.101915,355.415021,138.559868)"/><path style="fill:none;stroke-width:18;stroke-linecap:round;stroke-linejoin:miter;stroke:#6e439e;stroke-opacity:1;stroke-miterlimit:4;" d="M 11.286486 11.114308 C 39.538103 18.816943 60.110568 19.647622 73.000294 13.602566 " transform="matrix(-0.543962,-0.516339,0.516339,-0.543962,102.381135,320.771845)"/><path style="fill:none;stroke-width:18;stroke-linecap:round;stroke-linejoin:miter;stroke:#6e439e;stroke-opacity:1;stroke-miterlimit:4;" d="M 12.855757 33.232447 C 55.128206 0.901066 97.406896 0.922109 139.688005 33.301872 " transform="matrix(-0.728514,-0.178233,0.178233,-0.728514,199.422956,360.466472)"/><path style="fill:none;stroke-width:18;stroke-linecap:round;stroke-linejoin:miter;stroke:#6e439e;stroke-opacity:1;stroke-miterlimit:4;" d="M 13.049781 25.281865 C 37.636634 3.549259 62.225763 3.57117 86.812199 25.358128 " transform="matrix(-0.463507,0.589628,-0.589628,-0.463507,322.318841,274.379279)"/></g></svg>