<svg xmlns="http://www.w3.org/2000/svg" xmlns:xlink="http://www.w3.org/1999/xlink" width="500" zoomAndPan="magnify" viewBox="0 0 375 374.999991" height="500" preserveAspectRatio="xMidYMid meet" version="1.2"><defs><clipPath id="f2a1a663cd"><path d="M 27 15 L 369 15 L 369 371 L 27 371 Z M 27 15 "/></clipPath><clipPath id="572d7a5e13"><path d="M -52.4375 277.066406 L 123.742188 -60.753906 L 427.644531 97.738281 L 251.464844 435.554688 Z M -52.4375 277.066406 "/></clipPath><clipPath id="45b22f0207"><path d="M -52.4375 277.066406 L 123.742188 -60.753906 L 427.644531 97.738281 L 251.464844 435.554688 Z M -52.4375 277.066406 "/></clipPath><clipPath id="0083ded1ff"><path d="M 58 143 L 302 143 L 302 307 L 58 307 Z M 58 143 "/></clipPath><clipPath id="0b934636c6"><path d="M -52.4375 277.066406 L 123.742188 -60.753906 L 427.644531 97.738281 L 251.464844 435.554688 Z M -52.4375 277.066406 "/></clipPath><clipPath id="aeb4682cc4"><path d="M -52.4375 277.066406 L 123.742188 -60.753906 L 427.644531 97.738281 L 251.464844 435.554688 Z M -52.4375 277.066406 "/></clipPath><clipPath id="4eae718cfd"><path d="M 127 181 L 201 181 L 201 207 L 127 207 Z M 127 181 "/></clipPath><clipPath id="347d9c074e"><path d="M -52.4375 277.066406 L 123.742188 -60.753906 L 427.644531 97.738281 L 251.464844 435.554688 Z M -52.4375 277.066406 "/></clipPath><clipPath id="6352cac936"><path d="M -52.4375 277.066406 L 123.742188 -60.753906 L 427.644531 97.738281 L 251.464844 435.554688 Z M -52.4375 277.066406 "/></clipPath><clipPath id="c47dcb601c"><path d="M 70 36 L 330 36 L 330 343 L 70 343 Z M 70 36 "/></clipPath><clipPath id="283f7f3f99"><path d="M -52.4375 277.066406 L 123.742188 -60.753906 L 427.644531 97.738281 L 251.464844 435.554688 Z M -52.4375 277.066406 "/></clipPath><clipPath id="a9f9b1235b"><path d="M -52.4375 277.066406 L 123.742188 -60.753906 L 427.644531 97.738281 L 251.464844 435.554688 Z M -52.4375 277.066406 "/></clipPath><clipPath id="44a2bc4982"><path d="M 100 67 L 269 67 L 269 124 L 100 124 Z M 100 67 "/></clipPath><clipPath id="4f6d1ba052"><path d="M -52.4375 277.066406 L 123.742188 -60.753906 L 427.644531 97.738281 L 251.464844 435.554688 Z M -52.4375 277.066406 "/></clipPath><clipPath id="30f2057a90"><path d="M -52.4375 277.066406 L 123.742188 -60.753906 L 427.644531 97.738281 L 251.464844 435.554688 Z M -52.4375 277.066406 "/></clipPath><clipPath id="90a88a2b90"><path d="M 44 31 L 350 31 L 350 348 L 44 348 Z M 44 31 "/></clipPath><clipPath id="a24b261127"><path d="M -26.664062 264.28125 L 130.4375 -36.960938 L 401.757812 104.535156 L 244.65625 405.78125 Z M -26.664062 264.28125 "/></clipPath><clipPath id="30b48ec5ec"><path d="M -26.664062 264.28125 L 130.4375 -36.960938 L 401.757812 104.535156 L 244.65625 405.78125 Z M -26.664062 264.28125 "/></clipPath><clipPath id="14dccc825d"><path d="M 72 145 L 290 145 L 290 291 L 72 291 Z M 72 145 "/></clipPath><clipPath id="89a6c30201"><path d="M -26.664062 264.28125 L 130.4375 -36.960938 L 401.757812 104.535156 L 244.65625 405.78125 Z M -26.664062 264.28125 "/></clipPath><clipPath id="cf741015ee"><path d="M -26.664062 264.28125 L 130.4375 -36.960938 L 401.757812 104.535156 L 244.65625 405.78125 Z M -26.664062 264.28125 "/></clipPath><clipPath id="7b71732e1a"><path d="M 133 179 L 200 179 L 200 202 L 133 202 Z M 133 179 "/></clipPath><clipPath id="1ce955ac05"><path d="M -26.664062 264.28125 L 130.4375 -36.960938 L 401.757812 104.535156 L 244.65625 405.78125 Z M -26.664062 264.28125 "/></clipPath><clipPath id="5e7cf5768a"><path d="M -26.664062 264.28125 L 130.4375 -36.960938 L 401.757812 104.535156 L 244.65625 405.78125 Z M -26.664062 264.28125 "/></clipPath><clipPath id="47a15f7408"><path d="M 83 49 L 315 49 L 315 323 L 83 323 Z M 83 49 "/></clipPath><clipPath id="ef5edb8cb5"><path d="M -26.664062 264.28125 L 130.4375 -36.960938 L 401.757812 104.535156 L 244.65625 405.78125 Z M -26.664062 264.28125 "/></clipPath><clipPath id="1e4ddc9ce5"><path d="M -26.664062 264.28125 L 130.4375 -36.960938 L 401.757812 104.535156 L 244.65625 405.78125 Z M -26.664062 264.28125 "/></clipPath><clipPath id="76163e60c3"><path d="M 110 77 L 260 77 L 260 128 L 110 128 Z M 110 77 "/></clipPath><clipPath id="e011603885"><path d="M -26.664062 264.28125 L 130.4375 -36.960938 L 401.757812 104.535156 L 244.65625 405.78125 Z M -26.664062 264.28125 "/></clipPath><clipPath id="e031df7c1a"><path d="M -26.664062 264.28125 L 130.4375 -36.960938 L 401.757812 104.535156 L 244.65625 405.78125 Z M -26.664062 264.28125 "/></clipPath><clipPath id="2629f14b7d"><path d="M 68 56 L 323 56 L 323 321 L 68 321 Z M 68 56 "/></clipPath><clipPath id="14701b3996"><path d="M 8.765625 251.054688 L 139.859375 -0.3125 L 365.960938 117.601562 L 234.867188 368.96875 Z M 8.765625 251.054688 "/></clipPath><clipPath id="73800a0b82"><path d="M 8.765625 251.054688 L 139.859375 -0.3125 L 365.960938 117.601562 L 234.867188 368.96875 Z M 8.765625 251.054688 "/></clipPath><clipPath id="d40e5934e6"><path d="M 91 151 L 273 151 L 273 273 L 91 273 Z M 91 151 "/></clipPath><clipPath id="724e5c2966"><path d="M 8.765625 251.054688 L 139.859375 -0.3125 L 365.960938 117.601562 L 234.867188 368.96875 Z M 8.765625 251.054688 "/></clipPath><clipPath id="aeaf00703c"><path d="M 8.765625 251.054688 L 139.859375 -0.3125 L 365.960938 117.601562 L 234.867188 368.96875 Z M 8.765625 251.054688 "/></clipPath><clipPath id="60805fd839"><path d="M 142 180 L 198 180 L 198 199 L 142 199 Z M 142 180 "/></clipPath><clipPath id="a628fa4f14"><path d="M 8.765625 251.054688 L 139.859375 -0.3125 L 365.960938 117.601562 L 234.867188 368.96875 Z M 8.765625 251.054688 "/></clipPath><clipPath id="65c784daea"><path d="M 8.765625 251.054688 L 139.859375 -0.3125 L 365.960938 117.601562 L 234.867188 368.96875 Z M 8.765625 251.054688 "/></clipPath><clipPath id="e611df666a"><path d="M 100 71 L 294 71 L 294 301 L 100 301 Z M 100 71 "/></clipPath><clipPath id="6f610fd3ba"><path d="M 8.765625 251.054688 L 139.859375 -0.3125 L 365.960938 117.601562 L 234.867188 368.96875 Z M 8.765625 251.054688 "/></clipPath><clipPath id="1ee0d49b65"><path d="M 8.765625 251.054688 L 139.859375 -0.3125 L 365.960938 117.601562 L 234.867188 368.96875 Z M 8.765625 251.054688 "/></clipPath><clipPath id="04282d50d1"><path d="M 122 95 L 248 95 L 248 137 L 122 137 Z M 122 95 "/></clipPath><clipPath id="1e26e47708"><path d="M 8.765625 251.054688 L 139.859375 -0.3125 L 365.960938 117.601562 L 234.867188 368.96875 Z M 8.765625 251.054688 "/></clipPath><clipPath id="eddfd4f89e"><path d="M 8.765625 251.054688 L 139.859375 -0.3125 L 365.960938 117.601562 L 234.867188 368.96875 Z M 8.765625 251.054688 "/></clipPath><clipPath id="210d7c1b7c"><path d="M 121.222656 144 L 250 144 L 250 277.480469 L 121.222656 277.480469 Z M 121.222656 144 "/></clipPath></defs><g id="86193260da"><g clip-rule="nonzero" clip-path="url(#f2a1a663cd)"><g clip-rule="nonzero" clip-path="url(#572d7a5e13)"><g clip-rule="nonzero" clip-path="url(#45b22f0207)"><path style=" stroke:none;fill-rule:nonzero;fill:#6e439e;fill-opacity:1;" d="M 340.558594 96.539062 L 340.546875 97.121094 C 340.277344 107.421875 342.992188 117.578125 348.363281 126.371094 L 361.097656 147.203125 C 374.667969 169.40625 370.257812 198.15625 350.664062 215.277344 L 333.648438 230.140625 C 322.589844 239.800781 315.996094 253.585938 315.417969 268.257812 L 314.714844 286.140625 C 313.523438 316.425781 287.390625 339.652344 257.171875 337.28125 L 247.664062 336.535156 C 237.527344 335.738281 227.375 337.855469 218.398438 342.628906 L 178.566406 363.824219 C 154.644531 376.550781 124.980469 369.347656 109.5625 347.066406 L 93.875 324.394531 C 91.078125 320.355469 87.742188 316.722656 83.953125 313.597656 L 47.21875 283.273438 C 29.871094 268.957031 23.355469 245.308594 30.917969 224.128906 L 40.816406 196.402344 C 44.378906 186.421875 44.894531 175.609375 42.292969 165.335938 L 37.054688 144.644531 C 31.03125 120.859375 41.988281 96.03125 63.621094 84.449219 L 105.671875 61.941406 C 111.042969 59.066406 115.882812 55.292969 119.980469 50.78125 L 135.96875 33.199219 C 156.058594 11.101562 190.367188 9.777344 212.105469 30.253906 C 223.234375 40.742188 238.328125 45.953125 253.558594 44.570312 L 282.339844 41.953125 C 314.167969 39.058594 341.398438 64.585938 340.558594 96.539062 Z M 340.558594 96.539062 "/></g></g></g><g clip-rule="nonzero" clip-path="url(#0083ded1ff)"><g clip-rule="nonzero" clip-path="url(#0b934636c6)"><g clip-rule="nonzero" clip-path="url(#aeb4682cc4)"><path style=" stroke:none;fill-rule:nonzero;fill:#6e439e;fill-opacity:1;" d="M 300.765625 184.136719 C 305.472656 209.238281 294.0625 234.953125 279.027344 254.546875 C 262.871094 275.652344 241.011719 292.050781 215.675781 300.40625 C 190.539062 308.699219 162.933594 308.265625 137.984375 299.417969 C 119.816406 292.957031 103.535156 281.8125 91.164062 267.199219 C 87.105469 263.542969 83.375 259.628906 79.992188 255.308594 C 63.964844 234.753906 54.722656 206.53125 60.691406 180.570312 C 63.695312 167.390625 71.636719 155.238281 83.847656 148.921875 C 95.585938 142.816406 109.089844 143.140625 120.339844 150.222656 C 131.183594 157.023438 138.449219 167.792969 148.417969 175.582031 C 157.640625 182.785156 168.042969 183.261719 178.808594 179.402344 C 202.078125 171.117188 217.664062 148.269531 242.914062 144.164062 C 269.285156 139.855469 295.796875 157.648438 300.765625 184.136719 Z M 300.765625 184.136719 "/></g></g></g><g clip-rule="nonzero" clip-path="url(#4eae718cfd)"><g clip-rule="nonzero" clip-path="url(#347d9c074e)"><g clip-rule="nonzero" clip-path="url(#6352cac936)"><path style=" stroke:none;fill-rule:nonzero;fill:#6e439e;fill-opacity:1;" d="M 160.195312 191.046875 C 164.113281 189.933594 167.910156 192.664062 169.003906 196.335938 C 169.523438 198.074219 169.101562 200.308594 168.183594 201.835938 C 167.117188 203.613281 165.585938 204.453125 163.714844 205.148438 C 162.113281 205.738281 160.21875 206.019531 158.496094 206.167969 C 156.527344 206.339844 154.550781 206.433594 152.578125 206.257812 C 149.574219 205.988281 146.546875 205.386719 143.710938 204.339844 C 137.511719 202.046875 132.417969 198.132812 128.503906 192.839844 C 126.34375 189.921875 127.746094 185.496094 130.351562 183.472656 C 131.671875 182.445312 133.160156 181.957031 134.824219 181.894531 C 136.382812 181.835938 138.890625 182.722656 139.882812 184 C 142.472656 187.324219 145.578125 189.75 149.628906 191.003906 C 150.371094 191.238281 151.132812 191.382812 151.882812 191.554688 C 151.5 191.453125 151.355469 191.375 152.398438 191.660156 C 152.347656 191.652344 152.292969 191.644531 152.238281 191.636719 C 152.378906 191.671875 152.527344 191.695312 152.667969 191.734375 C 152.558594 191.703125 152.488281 191.6875 152.398438 191.660156 C 152.414062 191.664062 152.433594 191.667969 152.453125 191.671875 C 152.996094 191.734375 153.542969 191.777344 154.089844 191.804688 C 154.675781 191.832031 155.261719 191.824219 155.847656 191.835938 C 155.941406 191.832031 155.996094 191.832031 156.0625 191.832031 C 156.347656 191.800781 156.636719 191.769531 156.921875 191.734375 C 157.46875 191.667969 158.015625 191.589844 158.558594 191.496094 C 158.566406 191.457031 160.074219 191.082031 160.195312 191.046875 Z M 195.730469 189.613281 C 195.734375 189.613281 195.734375 189.613281 195.738281 189.613281 C 195.734375 189.613281 195.734375 189.613281 195.730469 189.613281 C 195.691406 189.601562 195.648438 189.601562 195.609375 189.589844 C 195.214844 189.519531 194.820312 189.449219 194.425781 189.378906 C 195.757812 189.5625 196.164062 189.617188 195.53125 189.523438 C 195.140625 189.464844 194.75 189.417969 194.359375 189.367188 C 193.917969 189.285156 193.476562 189.207031 193.03125 189.128906 C 192.085938 188.84375 191.140625 188.8125 190.199219 189.035156 C 189.210938 189.089844 188.292969 189.394531 187.445312 189.949219 C 186.597656 190.421875 185.921875 191.0625 185.421875 191.871094 C 184.800781 192.582031 184.386719 193.402344 184.175781 194.34375 C 184.101562 194.964844 184.023438 195.589844 183.945312 196.210938 C 183.960938 197.546875 184.3125 198.785156 184.996094 199.929688 C 185.390625 200.421875 185.78125 200.910156 186.175781 201.402344 C 187.09375 202.277344 188.164062 202.875 189.390625 203.199219 C 190.441406 203.359375 191.496094 203.515625 192.546875 203.675781 C 191.925781 203.582031 191.304688 203.488281 190.683594 203.394531 C 192.210938 203.878906 193.75 203.957031 195.304688 203.636719 C 196.578125 203.328125 197.691406 202.722656 198.640625 201.820312 C 200.492188 200.050781 201.285156 197.375 200.691406 194.886719 C 200.496094 193.902344 200.078125 193.042969 199.433594 192.304688 C 198.941406 191.496094 198.273438 190.855469 197.429688 190.378906 C 196.886719 190.046875 196.320312 189.792969 195.730469 189.613281 Z M 195.730469 189.613281 "/></g></g></g><g clip-rule="nonzero" clip-path="url(#c47dcb601c)"><g clip-rule="nonzero" clip-path="url(#283f7f3f99)"><g clip-rule="nonzero" clip-path="url(#a9f9b1235b)"><path style=" stroke:none;fill-rule:nonzero;fill:#6e439e;fill-opacity:1;" d="M 159.652344 110.855469 C 160.785156 111.269531 161.914062 111.683594 163.046875 112.09375 C 164.746094 112.894531 166.132812 114.046875 167.203125 115.542969 C 168.558594 116.878906 169.492188 118.484375 170.011719 120.359375 C 170.671875 122.191406 170.832031 124.042969 170.5 125.914062 C 170.488281 127.753906 170.019531 129.492188 169.09375 131.128906 C 167.945312 133.332031 166.332031 135.113281 164.253906 136.476562 C 163.113281 137.015625 161.972656 137.554688 160.828125 138.09375 C 158.398438 138.859375 155.9375 138.96875 153.453125 138.417969 C 152.320312 138.003906 151.191406 137.589844 150.058594 137.179688 C 148.359375 136.375 146.972656 135.226562 145.898438 133.730469 C 144.546875 132.394531 143.613281 130.789062 143.09375 128.914062 C 142.433594 127.082031 142.269531 125.230469 142.605469 123.359375 C 142.617188 121.519531 143.085938 119.78125 144.011719 118.144531 C 145.160156 115.941406 146.773438 114.15625 148.851562 112.792969 C 149.992188 112.253906 151.132812 111.714844 152.277344 111.175781 C 154.707031 110.410156 157.167969 110.304688 159.652344 110.855469 Z M 234.585938 166.109375 C 225.824219 182.914062 252.449219 195.339844 261.183594 178.589844 C 269.949219 161.789062 243.320312 149.363281 234.585938 166.109375 Z M 162.578125 315.578125 C 162.578125 315.578125 162.574219 315.578125 162.574219 315.578125 C 162.078125 315.355469 161.566406 315.183594 161.050781 315.039062 C 160.992188 315.019531 160.9375 315 160.882812 314.980469 C 160.808594 314.964844 160.734375 314.960938 160.664062 314.949219 C 159.5625 314.6875 158.425781 314.585938 157.25 314.683594 C 157.242188 314.6875 157.234375 314.6875 157.230469 314.6875 C 155.992188 314.75 154.761719 314.980469 153.542969 315.378906 C 152.417969 315.703125 151.421875 316.230469 150.496094 316.855469 C 150.382812 316.914062 150.265625 316.96875 150.152344 317.023438 C 149.058594 317.757812 148.109375 318.617188 147.28125 319.585938 C 146.519531 320.40625 145.878906 321.335938 145.390625 322.398438 C 144.992188 323.527344 144.59375 324.65625 144.195312 325.785156 C 143.726562 327.640625 143.742188 329.46875 144.246094 331.273438 C 144.433594 333.175781 145.097656 334.925781 146.238281 336.515625 C 147.039062 337.433594 147.835938 338.347656 148.636719 339.261719 C 149.988281 340.542969 151.542969 341.410156 153.308594 341.875 C 154.984375 342.628906 156.761719 342.925781 158.636719 342.765625 C 159.871094 342.535156 161.105469 342.304688 162.339844 342.074219 C 164.746094 341.273438 166.792969 339.925781 168.476562 338.03125 C 170.203125 336.15625 171.242188 334.085938 171.640625 331.835938 C 171.65625 331.777344 171.671875 331.722656 171.6875 331.664062 C 172 330.433594 172.015625 329.21875 171.898438 328.011719 C 171.890625 326.773438 171.742188 325.542969 171.289062 324.328125 C 171.246094 324.171875 171.15625 324.046875 171.105469 323.894531 C 170.960938 323.460938 170.757812 323.042969 170.558594 322.628906 C 170.351562 322.191406 170.136719 321.757812 169.871094 321.355469 C 169.785156 321.222656 169.742188 321.070312 169.644531 320.9375 C 169.246094 320.476562 168.84375 320.019531 168.445312 319.5625 C 168.117188 319.117188 167.753906 318.710938 167.371094 318.328125 C 167.328125 318.285156 167.289062 318.238281 167.246094 318.191406 C 167.148438 318.09375 167.039062 318.019531 166.933594 317.925781 C 166.75 317.761719 166.558594 317.597656 166.363281 317.445312 C 166.195312 317.320312 166.023438 317.203125 165.855469 317.085938 C 165.667969 316.960938 165.480469 316.832031 165.28125 316.71875 C 165.074219 316.59375 164.859375 316.484375 164.640625 316.375 C 164.515625 316.3125 164.402344 316.234375 164.269531 316.175781 C 164.214844 316.15625 164.160156 316.136719 164.101562 316.117188 C 163.609375 315.90625 163.105469 315.71875 162.578125 315.578125 Z M 257.871094 247.925781 C 250.472656 262.113281 271.84375 274.960938 279.28125 260.699219 C 286.679688 246.515625 265.308594 233.664062 257.871094 247.925781 Z M 283.4375 93.015625 L 277.847656 94.734375 C 274.09375 96.480469 271.03125 99.046875 268.65625 102.4375 C 266.855469 104.859375 265.761719 107.535156 265.371094 110.460938 C 264.511719 113.257812 264.382812 116.117188 264.984375 119.042969 C 265.386719 122.085938 266.496094 124.804688 268.324219 127.191406 C 269.734375 129.921875 271.761719 132.132812 274.410156 133.824219 C 276.144531 134.714844 277.878906 135.605469 279.613281 136.496094 C 283.328125 137.804688 287.128906 138.136719 291.015625 137.496094 C 292.878906 136.925781 294.742188 136.351562 296.605469 135.777344 C 300.359375 134.035156 303.421875 131.464844 305.796875 128.074219 C 307.597656 125.652344 308.695312 122.980469 309.082031 120.050781 C 309.941406 117.253906 310.070312 114.394531 309.46875 111.46875 C 309.070312 108.425781 307.957031 105.707031 306.132812 103.320312 C 304.722656 100.589844 302.691406 98.378906 300.042969 96.6875 C 298.308594 95.796875 296.574219 94.90625 294.839844 94.015625 C 291.125 92.707031 287.324219 92.375 283.4375 93.015625 Z M 309.042969 154.769531 C 302.347656 167.609375 321.179688 180.316406 327.941406 167.355469 C 334.636719 154.515625 315.804688 141.804688 309.042969 154.769531 Z M 194.472656 54.105469 C 201.222656 41.167969 182.210938 28.441406 175.398438 41.496094 C 168.652344 54.433594 187.664062 67.160156 194.472656 54.105469 Z M 91.941406 222.652344 C 89.398438 222.210938 86.886719 222.425781 84.398438 223.296875 C 81.75 224.019531 79.484375 225.335938 77.597656 227.242188 C 75.453125 228.753906 73.820312 230.726562 72.691406 233.160156 C 72.128906 234.742188 71.5625 236.324219 71 237.90625 C 70.269531 241.292969 70.410156 244.640625 71.425781 247.957031 C 72.167969 249.550781 72.914062 251.148438 73.660156 252.742188 C 75.585938 255.730469 78.128906 258.039062 81.289062 259.664062 C 81.515625 259.78125 81.742188 259.921875 81.980469 260.015625 C 84.261719 261.277344 86.679688 261.917969 89.230469 261.929688 C 91.773438 262.371094 94.285156 262.15625 96.769531 261.289062 C 99.417969 260.566406 101.683594 259.253906 103.570312 257.351562 C 105.714844 255.835938 107.347656 253.867188 108.476562 251.433594 C 109.039062 249.855469 109.605469 248.273438 110.171875 246.695312 C 110.898438 243.308594 110.761719 239.960938 109.75 236.648438 C 109.003906 235.050781 108.261719 233.457031 107.519531 231.859375 C 105.59375 228.875 103.050781 226.566406 99.894531 224.941406 C 99.675781 224.796875 99.429688 224.6875 99.195312 224.566406 C 96.914062 223.300781 94.496094 222.664062 91.941406 222.652344 Z M 91.941406 222.652344 "/></g></g></g><g clip-rule="nonzero" clip-path="url(#44a2bc4982)"><g clip-rule="nonzero" clip-path="url(#4f6d1ba052)"><g clip-rule="nonzero" clip-path="url(#30f2057a90)"><path style=" stroke:none;fill-rule:nonzero;fill:#6e439e;fill-opacity:1;" d="M 239.789062 88.03125 C 242.703125 98.820312 226.257812 104.5 223.289062 93.664062 C 222.464844 90.660156 203.074219 98.585938 198.949219 98.550781 C 189.757812 98.476562 183.414062 92.558594 175.671875 88.585938 C 150.289062 75.5625 129.328125 102.566406 115.953125 120.324219 C 109.175781 129.320312 95.945312 117.925781 102.679688 109.011719 C 119.414062 86.859375 143.1875 60.910156 174.28125 69.226562 C 181.816406 71.242188 187.34375 77.542969 194.460938 79.703125 C 202.566406 82.164062 210.019531 76.035156 217.683594 75.011719 C 227.417969 73.710938 237.140625 78.21875 239.789062 88.03125 Z M 251.964844 82.855469 C 246.765625 92.824219 262.3125 100.726562 267.507812 90.765625 C 272.703125 80.796875 257.160156 72.894531 251.964844 82.855469 Z M 251.964844 82.855469 "/></g></g></g><g clip-rule="nonzero" clip-path="url(#90a88a2b90)"><g clip-rule="nonzero" clip-path="url(#a24b261127)"><g clip-rule="nonzero" clip-path="url(#30b48ec5ec)"><path style=" stroke:none;fill-rule:nonzero;fill:#ffffff;fill-opacity:1;" d="M 324.117188 103.148438 L 324.105469 103.667969 C 323.863281 112.863281 326.289062 121.929688 331.082031 129.777344 L 342.449219 148.371094 C 354.558594 168.1875 350.625 193.851562 333.132812 209.128906 L 317.949219 222.398438 C 308.078125 231.019531 302.191406 243.324219 301.675781 256.421875 L 301.046875 272.382812 C 299.984375 299.417969 276.660156 320.148438 249.6875 318.03125 L 241.199219 317.363281 C 232.152344 316.65625 223.089844 318.542969 215.078125 322.804688 L 179.523438 341.722656 C 158.171875 353.082031 131.695312 346.652344 117.933594 326.765625 L 103.929688 306.527344 C 101.4375 302.921875 98.457031 299.679688 95.074219 296.890625 L 62.285156 269.824219 C 46.804688 257.046875 40.988281 235.9375 47.738281 217.03125 L 56.574219 192.285156 C 59.753906 183.378906 60.210938 173.722656 57.890625 164.554688 L 53.214844 146.085938 C 47.839844 124.855469 57.621094 102.695312 76.929688 92.359375 L 114.460938 72.265625 C 119.253906 69.699219 123.574219 66.332031 127.234375 62.308594 L 141.5 46.613281 C 159.433594 26.890625 190.058594 25.707031 209.460938 43.984375 C 219.394531 53.34375 232.867188 57.996094 246.460938 56.761719 L 272.148438 54.425781 C 300.5625 51.84375 324.863281 74.628906 324.117188 103.148438 Z M 324.117188 103.148438 "/></g></g></g><g clip-rule="nonzero" clip-path="url(#14dccc825d)"><g clip-rule="nonzero" clip-path="url(#89a6c30201)"><g clip-rule="nonzero" clip-path="url(#cf741015ee)"><path style=" stroke:none;fill-rule:nonzero;fill:#ffffff;fill-opacity:1;" d="M 288.597656 181.335938 C 292.800781 203.742188 282.613281 226.695312 269.191406 244.183594 C 254.773438 263.023438 235.261719 277.65625 212.648438 285.117188 C 190.210938 292.519531 165.574219 292.132812 143.300781 284.234375 C 127.085938 278.46875 112.554688 268.519531 101.511719 255.476562 C 97.890625 252.210938 94.5625 248.71875 91.539062 244.863281 C 77.234375 226.519531 68.984375 201.328125 74.3125 178.152344 C 76.996094 166.386719 84.082031 155.542969 94.980469 149.90625 C 105.460938 144.457031 117.511719 144.742188 127.554688 151.066406 C 137.234375 157.136719 143.71875 166.75 152.613281 173.699219 C 160.847656 180.128906 170.132812 180.554688 179.742188 177.109375 C 200.507812 169.714844 214.421875 149.320312 236.960938 145.65625 C 260.496094 141.8125 284.164062 157.695312 288.597656 181.335938 Z M 288.597656 181.335938 "/></g></g></g><g clip-rule="nonzero" clip-path="url(#7b71732e1a)"><g clip-rule="nonzero" clip-path="url(#1ce955ac05)"><g clip-rule="nonzero" clip-path="url(#5e7cf5768a)"><path style=" stroke:none;fill-rule:nonzero;fill:#ffffff;fill-opacity:1;" d="M 163.128906 187.503906 C 166.625 186.511719 170.015625 188.945312 170.992188 192.226562 C 171.453125 193.777344 171.078125 195.773438 170.257812 197.136719 C 169.308594 198.71875 167.941406 199.472656 166.269531 200.089844 C 164.839844 200.617188 163.148438 200.867188 161.609375 201 C 159.851562 201.152344 158.089844 201.238281 156.332031 201.082031 C 153.648438 200.839844 150.945312 200.304688 148.414062 199.371094 C 142.882812 197.320312 138.332031 193.828125 134.839844 189.105469 C 132.914062 186.5 134.164062 182.550781 136.488281 180.742188 C 137.667969 179.828125 138.996094 179.390625 140.484375 179.335938 C 141.871094 179.285156 144.113281 180.074219 145 181.214844 C 147.308594 184.179688 150.082031 186.347656 153.699219 187.46875 C 154.359375 187.675781 155.035156 187.804688 155.707031 187.957031 C 155.367188 187.867188 155.238281 187.796875 156.167969 188.054688 C 156.121094 188.046875 156.074219 188.039062 156.023438 188.03125 C 156.152344 188.0625 156.28125 188.085938 156.410156 188.121094 C 156.308594 188.09375 156.25 188.074219 156.167969 188.054688 C 156.183594 188.054688 156.199219 188.058594 156.214844 188.0625 C 156.703125 188.117188 157.1875 188.15625 157.675781 188.179688 C 158.199219 188.207031 158.722656 188.199219 159.246094 188.207031 C 159.332031 188.207031 159.378906 188.203125 159.4375 188.203125 C 159.695312 188.175781 159.949219 188.148438 160.207031 188.117188 C 160.691406 188.058594 161.179688 187.988281 161.664062 187.902344 C 161.671875 187.871094 163.019531 187.535156 163.128906 187.503906 Z M 194.847656 186.222656 C 194.847656 186.222656 194.851562 186.226562 194.851562 186.226562 C 194.851562 186.226562 194.847656 186.222656 194.847656 186.222656 C 194.8125 186.214844 194.773438 186.214844 194.734375 186.203125 C 194.382812 186.140625 194.03125 186.078125 193.679688 186.015625 C 194.867188 186.179688 195.234375 186.226562 194.667969 186.144531 C 194.320312 186.09375 193.972656 186.050781 193.625 186.003906 C 193.226562 185.933594 192.832031 185.863281 192.4375 185.792969 C 191.59375 185.539062 190.75 185.511719 189.90625 185.707031 C 189.027344 185.757812 188.207031 186.027344 187.449219 186.523438 C 186.695312 186.945312 186.089844 187.519531 185.644531 188.242188 C 185.089844 188.875 184.71875 189.609375 184.53125 190.445312 C 184.464844 191.003906 184.394531 191.558594 184.324219 192.117188 C 184.339844 193.304688 184.65625 194.410156 185.265625 195.433594 C 185.613281 195.871094 185.964844 196.308594 186.316406 196.746094 C 187.136719 197.527344 188.09375 198.0625 189.1875 198.351562 C 190.125 198.496094 191.066406 198.636719 192.003906 198.777344 C 191.449219 198.695312 190.894531 198.609375 190.339844 198.527344 C 191.703125 198.957031 193.078125 199.027344 194.464844 198.742188 C 195.601562 198.464844 196.59375 197.925781 197.445312 197.121094 C 199.09375 195.542969 199.800781 193.152344 199.273438 190.929688 C 199.097656 190.054688 198.726562 189.285156 198.152344 188.628906 C 197.710938 187.90625 197.113281 187.332031 196.363281 186.910156 C 195.878906 186.613281 195.375 186.382812 194.847656 186.222656 Z M 194.847656 186.222656 "/></g></g></g><g clip-rule="nonzero" clip-path="url(#47a15f7408)"><g clip-rule="nonzero" clip-path="url(#ef5edb8cb5)"><g clip-rule="nonzero" clip-path="url(#1e4ddc9ce5)"><path style=" stroke:none;fill-rule:nonzero;fill:#ffffff;fill-opacity:1;" d="M 162.644531 115.925781 C 163.652344 116.296875 164.660156 116.664062 165.671875 117.03125 C 167.1875 117.75 168.425781 118.773438 169.382812 120.109375 C 170.589844 121.304688 171.425781 122.734375 171.890625 124.410156 C 172.476562 126.042969 172.625 127.695312 172.324219 129.367188 C 172.316406 131.011719 171.894531 132.5625 171.070312 134.023438 C 170.042969 135.988281 168.605469 137.578125 166.75 138.796875 C 165.730469 139.277344 164.714844 139.761719 163.695312 140.242188 C 161.523438 140.921875 159.328125 141.019531 157.109375 140.527344 C 156.097656 140.160156 155.089844 139.789062 154.082031 139.421875 C 152.5625 138.707031 151.324219 137.679688 150.367188 136.34375 C 149.160156 135.152344 148.324219 133.71875 147.863281 132.046875 C 147.273438 130.410156 147.128906 128.757812 147.425781 127.089844 C 147.4375 125.445312 147.855469 123.894531 148.679688 122.433594 C 149.707031 120.46875 151.148438 118.875 153 117.65625 C 154.019531 117.175781 155.039062 116.695312 156.058594 116.214844 C 158.230469 115.53125 160.425781 115.4375 162.644531 115.925781 Z M 229.527344 165.246094 C 221.707031 180.246094 245.472656 191.335938 253.269531 176.386719 C 261.089844 161.390625 237.324219 150.296875 229.527344 165.246094 Z M 165.253906 298.660156 C 164.804688 298.457031 164.351562 298.304688 163.890625 298.175781 C 163.839844 298.160156 163.789062 298.140625 163.738281 298.125 C 163.675781 298.109375 163.609375 298.109375 163.542969 298.097656 C 162.5625 297.863281 161.550781 297.773438 160.496094 297.859375 C 160.492188 297.863281 160.484375 297.863281 160.480469 297.863281 C 159.375 297.921875 158.277344 298.125 157.191406 298.480469 C 156.183594 298.769531 155.296875 299.242188 154.472656 299.800781 C 154.367188 299.847656 154.265625 299.898438 154.164062 299.949219 C 153.1875 300.605469 152.339844 301.371094 151.597656 302.234375 C 150.921875 302.96875 150.351562 303.796875 149.914062 304.746094 C 149.558594 305.753906 149.203125 306.761719 148.847656 307.769531 C 148.425781 309.425781 148.441406 311.058594 148.890625 312.667969 C 149.058594 314.367188 149.652344 315.925781 150.671875 317.347656 C 151.382812 318.164062 152.097656 318.980469 152.808594 319.796875 C 154.015625 320.941406 155.40625 321.71875 156.980469 322.128906 C 158.476562 322.804688 160.0625 323.070312 161.734375 322.925781 C 162.835938 322.722656 163.941406 322.515625 165.042969 322.308594 C 167.191406 321.59375 169.015625 320.390625 170.519531 318.699219 C 172.058594 317.023438 172.988281 315.179688 173.34375 313.167969 C 173.355469 313.117188 173.371094 313.066406 173.386719 313.019531 C 173.664062 311.917969 173.679688 310.835938 173.574219 309.757812 C 173.566406 308.652344 173.433594 307.554688 173.03125 306.46875 C 172.992188 306.328125 172.910156 306.214844 172.863281 306.082031 C 172.734375 305.691406 172.558594 305.320312 172.378906 304.949219 C 172.191406 304.5625 172 304.171875 171.765625 303.816406 C 171.683594 303.695312 171.648438 303.558594 171.5625 303.441406 C 171.203125 303.03125 170.847656 302.621094 170.492188 302.214844 C 170.199219 301.816406 169.875 301.457031 169.53125 301.113281 C 169.496094 301.074219 169.460938 301.03125 169.421875 300.992188 C 169.332031 300.90625 169.234375 300.835938 169.144531 300.753906 C 168.976562 300.609375 168.808594 300.460938 168.632812 300.328125 C 168.484375 300.210938 168.332031 300.109375 168.179688 300.003906 C 168.011719 299.890625 167.84375 299.777344 167.667969 299.675781 C 167.480469 299.566406 167.289062 299.464844 167.097656 299.371094 C 166.984375 299.3125 166.882812 299.246094 166.765625 299.191406 C 166.714844 299.175781 166.664062 299.15625 166.613281 299.140625 C 166.175781 298.949219 165.726562 298.78125 165.253906 298.660156 Z M 250.3125 238.273438 C 243.707031 250.9375 262.78125 262.40625 269.421875 249.675781 C 276.023438 237.015625 256.949219 225.542969 250.3125 238.273438 Z M 273.132812 100.003906 L 268.144531 101.539062 C 264.792969 103.09375 262.058594 105.386719 259.9375 108.414062 C 258.332031 110.574219 257.351562 112.960938 257.007812 115.574219 C 256.238281 118.070312 256.125 120.625 256.660156 123.234375 C 257.019531 125.953125 258.011719 128.378906 259.640625 130.507812 C 260.898438 132.945312 262.710938 134.917969 265.074219 136.429688 C 266.621094 137.226562 268.171875 138.019531 269.71875 138.8125 C 273.035156 139.980469 276.425781 140.28125 279.894531 139.707031 C 281.558594 139.195312 283.222656 138.683594 284.886719 138.171875 C 288.234375 136.617188 290.96875 134.324219 293.089844 131.296875 C 294.695312 129.136719 295.675781 126.75 296.019531 124.136719 C 296.789062 121.640625 296.902344 119.085938 296.367188 116.472656 C 296.007812 113.757812 295.015625 111.332031 293.386719 109.203125 C 292.128906 106.765625 290.316406 104.792969 287.953125 103.28125 C 286.40625 102.484375 284.855469 101.691406 283.308594 100.898438 C 279.992188 99.730469 276.601562 99.429688 273.132812 100.003906 Z M 295.984375 155.121094 C 290.007812 166.582031 306.820312 177.929688 312.851562 166.359375 C 318.832031 154.898438 302.019531 143.550781 295.984375 155.121094 Z M 193.722656 65.273438 C 199.746094 53.726562 182.777344 42.363281 176.699219 54.019531 C 170.675781 65.566406 187.644531 76.925781 193.722656 65.273438 Z M 102.207031 215.714844 C 99.9375 215.320312 97.691406 215.515625 95.472656 216.289062 C 93.109375 216.9375 91.085938 218.109375 89.402344 219.808594 C 87.488281 221.160156 86.03125 222.921875 85.023438 225.09375 C 84.519531 226.507812 84.015625 227.917969 83.511719 229.328125 C 82.863281 232.351562 82.988281 235.34375 83.894531 238.300781 C 84.558594 239.726562 85.222656 241.148438 85.886719 242.574219 C 87.605469 245.242188 89.878906 247.296875 92.695312 248.75 C 92.898438 248.855469 93.101562 248.980469 93.316406 249.0625 C 95.351562 250.191406 97.507812 250.761719 99.785156 250.773438 C 102.054688 251.167969 104.296875 250.976562 106.515625 250.199219 C 108.878906 249.558594 110.902344 248.386719 112.585938 246.683594 C 114.5 245.335938 115.957031 243.574219 116.964844 241.40625 C 117.46875 239.996094 117.972656 238.585938 118.476562 237.171875 C 119.128906 234.152344 119.003906 231.164062 118.101562 228.207031 C 117.4375 226.78125 116.773438 225.359375 116.109375 223.933594 C 114.390625 221.269531 112.121094 219.210938 109.304688 217.757812 C 109.109375 217.628906 108.886719 217.53125 108.679688 217.421875 C 106.644531 216.292969 104.484375 215.722656 102.207031 215.714844 Z M 102.207031 215.714844 "/></g></g></g><g clip-rule="nonzero" clip-path="url(#76163e60c3)"><g clip-rule="nonzero" clip-path="url(#e011603885)"><g clip-rule="nonzero" clip-path="url(#e031df7c1a)"><path style=" stroke:none;fill-rule:nonzero;fill:#ffffff;fill-opacity:1;" d="M 234.171875 95.554688 C 236.773438 105.183594 222.09375 110.253906 219.441406 100.582031 C 218.707031 97.902344 201.398438 104.976562 197.71875 104.945312 C 189.511719 104.878906 183.851562 99.597656 176.941406 96.050781 C 154.285156 84.425781 135.574219 108.527344 123.636719 124.378906 C 117.589844 132.410156 105.777344 122.238281 111.789062 114.28125 C 126.726562 94.507812 147.945312 71.347656 175.699219 78.769531 C 182.425781 80.566406 187.359375 86.191406 193.710938 88.121094 C 200.945312 90.320312 207.601562 84.847656 214.441406 83.933594 C 223.128906 82.773438 231.808594 86.796875 234.171875 95.554688 Z M 245.039062 90.9375 C 240.398438 99.832031 254.273438 106.886719 258.910156 97.992188 C 263.550781 89.097656 249.675781 82.042969 245.039062 90.9375 Z M 245.039062 90.9375 "/></g></g></g><g clip-rule="nonzero" clip-path="url(#2629f14b7d)"><g clip-rule="nonzero" clip-path="url(#14701b3996)"><g clip-rule="nonzero" clip-path="url(#73800a0b82)"><path style=" stroke:none;fill-rule:nonzero;fill:#6e439e;fill-opacity:1;" d="M 301.511719 116.582031 L 301.503906 117.015625 C 301.300781 124.6875 303.324219 132.253906 307.328125 138.804688 L 316.8125 154.320312 C 326.917969 170.859375 323.636719 192.277344 309.039062 205.027344 L 296.363281 216.101562 C 288.128906 223.296875 283.214844 233.566406 282.785156 244.496094 L 282.261719 257.816406 C 281.371094 280.378906 261.90625 297.679688 239.398438 295.910156 L 232.3125 295.355469 C 224.761719 294.765625 217.199219 296.339844 210.515625 299.898438 L 180.84375 315.683594 C 163.023438 325.164062 140.929688 319.796875 129.441406 303.199219 L 117.757812 286.3125 C 115.675781 283.304688 113.1875 280.597656 110.367188 278.269531 L 83.003906 255.683594 C 70.082031 245.015625 65.226562 227.402344 70.859375 211.625 L 78.234375 190.972656 C 80.886719 183.535156 81.269531 175.480469 79.332031 167.828125 L 75.429688 152.414062 C 70.945312 134.695312 79.105469 116.203125 95.222656 107.574219 L 126.542969 90.808594 C 130.542969 88.667969 134.148438 85.855469 137.203125 82.496094 L 149.109375 69.402344 C 164.078125 52.941406 189.632812 51.953125 205.824219 67.207031 C 214.117188 75.019531 225.359375 78.898438 236.707031 77.867188 L 258.144531 75.921875 C 281.855469 73.765625 302.136719 92.78125 301.511719 116.582031 Z M 301.511719 116.582031 "/></g></g></g><g clip-rule="nonzero" clip-path="url(#d40e5934e6)"><g clip-rule="nonzero" clip-path="url(#724e5c2966)"><g clip-rule="nonzero" clip-path="url(#aeaf00703c)"><path style=" stroke:none;fill-rule:nonzero;fill:#6e439e;fill-opacity:1;" d="M 271.871094 181.832031 C 275.375 200.53125 266.878906 219.6875 255.675781 234.28125 C 243.644531 250.003906 227.359375 262.21875 208.488281 268.441406 C 189.761719 274.621094 169.199219 274.296875 150.613281 267.707031 C 137.082031 262.894531 124.953125 254.59375 115.738281 243.707031 C 112.714844 240.984375 109.9375 238.070312 107.414062 234.851562 C 95.476562 219.539062 88.589844 198.515625 93.035156 179.175781 C 95.277344 169.359375 101.191406 160.308594 110.289062 155.601562 C 119.03125 151.054688 129.089844 151.292969 137.472656 156.570312 C 145.546875 161.636719 150.960938 169.660156 158.386719 175.460938 C 165.253906 180.828125 173.003906 181.179688 181.023438 178.304688 C 198.355469 172.132812 209.964844 155.117188 228.773438 152.058594 C 248.417969 148.847656 268.171875 162.101562 271.871094 181.832031 Z M 271.871094 181.832031 "/></g></g></g><g clip-rule="nonzero" clip-path="url(#60805fd839)"><g clip-rule="nonzero" clip-path="url(#a628fa4f14)"><g clip-rule="nonzero" clip-path="url(#65c784daea)"><path style=" stroke:none;fill-rule:nonzero;fill:#6e439e;fill-opacity:1;" d="M 167.160156 186.980469 C 170.078125 186.152344 172.90625 188.183594 173.722656 190.921875 C 174.105469 192.214844 173.792969 193.882812 173.109375 195.019531 C 172.316406 196.339844 171.175781 196.96875 169.78125 197.484375 C 168.585938 197.925781 167.175781 198.132812 165.890625 198.246094 C 164.425781 198.371094 162.953125 198.441406 161.484375 198.3125 C 159.246094 198.113281 156.992188 197.664062 154.878906 196.882812 C 150.261719 195.171875 146.46875 192.257812 143.550781 188.316406 C 141.941406 186.140625 142.988281 182.847656 144.925781 181.339844 C 145.914062 180.574219 147.019531 180.210938 148.261719 180.164062 C 149.417969 180.121094 151.289062 180.78125 152.027344 181.730469 C 153.957031 184.207031 156.273438 186.015625 159.289062 186.949219 C 159.84375 187.121094 160.40625 187.230469 160.96875 187.359375 C 160.679688 187.28125 160.574219 187.226562 161.351562 187.4375 C 161.3125 187.433594 161.273438 187.425781 161.230469 187.417969 C 161.335938 187.445312 161.445312 187.464844 161.550781 187.496094 C 161.46875 187.472656 161.417969 187.457031 161.351562 187.4375 C 161.363281 187.441406 161.378906 187.445312 161.390625 187.445312 C 161.796875 187.492188 162.203125 187.523438 162.609375 187.546875 C 163.046875 187.566406 163.484375 187.5625 163.921875 187.570312 C 163.992188 187.566406 164.03125 187.566406 164.078125 187.566406 C 164.292969 187.542969 164.507812 187.519531 164.71875 187.492188 C 165.125 187.445312 165.535156 187.382812 165.9375 187.3125 C 165.945312 187.289062 167.066406 187.007812 167.160156 186.980469 Z M 193.628906 185.914062 C 193.632812 185.914062 193.632812 185.914062 193.632812 185.914062 C 193.632812 185.914062 193.632812 185.914062 193.628906 185.914062 C 193.601562 185.902344 193.566406 185.90625 193.539062 185.894531 C 193.242188 185.84375 192.949219 185.789062 192.65625 185.738281 C 193.648438 185.875 193.953125 185.914062 193.480469 185.84375 C 193.191406 185.804688 192.898438 185.765625 192.609375 185.730469 C 192.28125 185.671875 191.949219 185.609375 191.621094 185.550781 C 190.914062 185.339844 190.210938 185.316406 189.507812 185.480469 C 188.773438 185.523438 188.089844 185.75 187.457031 186.164062 C 186.824219 186.515625 186.324219 186.992188 185.949219 187.597656 C 185.488281 188.125 185.179688 188.738281 185.023438 189.4375 C 184.964844 189.902344 184.90625 190.363281 184.851562 190.828125 C 184.863281 191.824219 185.125 192.746094 185.632812 193.597656 C 185.925781 193.964844 186.21875 194.328125 186.511719 194.695312 C 187.195312 195.34375 187.992188 195.792969 188.90625 196.035156 C 189.691406 196.152344 190.472656 196.269531 191.257812 196.386719 C 190.792969 196.320312 190.332031 196.25 189.871094 196.179688 C 191.007812 196.539062 192.15625 196.597656 193.3125 196.359375 C 194.261719 196.128906 195.089844 195.679688 195.796875 195.007812 C 197.175781 193.6875 197.765625 191.695312 197.324219 189.839844 C 197.179688 189.109375 196.867188 188.46875 196.386719 187.917969 C 196.019531 187.316406 195.523438 186.839844 194.894531 186.484375 C 194.492188 186.234375 194.070312 186.046875 193.628906 185.914062 Z M 193.628906 185.914062 "/></g></g></g><g clip-rule="nonzero" clip-path="url(#e611df666a)"><g clip-rule="nonzero" clip-path="url(#6f610fd3ba)"><g clip-rule="nonzero" clip-path="url(#1ee0d49b65)"><path style=" stroke:none;fill-rule:nonzero;fill:#6e439e;fill-opacity:1;" d="M 166.753906 127.246094 C 167.597656 127.554688 168.441406 127.863281 169.28125 128.167969 C 170.546875 128.765625 171.582031 129.621094 172.378906 130.738281 C 173.386719 131.730469 174.085938 132.929688 174.472656 134.324219 C 174.960938 135.6875 175.082031 137.070312 174.835938 138.460938 C 174.828125 139.835938 174.476562 141.128906 173.789062 142.347656 C 172.933594 143.988281 171.730469 145.316406 170.183594 146.332031 C 169.332031 146.734375 168.480469 147.136719 167.632812 147.539062 C 165.820312 148.105469 163.988281 148.1875 162.136719 147.777344 C 161.292969 147.46875 160.453125 147.160156 159.609375 146.855469 C 158.34375 146.257812 157.308594 145.402344 156.511719 144.285156 C 155.503906 143.289062 154.804688 142.09375 154.417969 140.699219 C 153.929688 139.332031 153.808594 137.953125 154.054688 136.558594 C 154.066406 135.1875 154.414062 133.894531 155.101562 132.675781 C 155.957031 131.035156 157.160156 129.707031 158.707031 128.691406 C 159.558594 128.289062 160.410156 127.886719 161.257812 127.484375 C 163.070312 126.914062 164.902344 126.835938 166.753906 127.246094 Z M 222.574219 168.40625 C 216.046875 180.921875 235.878906 190.179688 242.386719 177.703125 C 248.914062 165.1875 229.078125 155.929688 222.574219 168.40625 Z M 168.933594 279.746094 C 168.558594 279.578125 168.179688 279.449219 167.796875 279.34375 C 167.753906 279.328125 167.710938 279.3125 167.671875 279.300781 C 167.617188 279.289062 167.5625 279.285156 167.507812 279.277344 C 166.6875 279.082031 165.839844 279.003906 164.964844 279.078125 C 164.960938 279.082031 164.953125 279.082031 164.949219 279.082031 C 164.027344 279.128906 163.113281 279.300781 162.203125 279.597656 C 161.363281 279.835938 160.625 280.230469 159.933594 280.695312 C 159.847656 280.738281 159.761719 280.78125 159.675781 280.820312 C 158.863281 281.367188 158.15625 282.007812 157.539062 282.730469 C 156.972656 283.34375 156.496094 284.035156 156.132812 284.824219 C 155.835938 285.667969 155.539062 286.507812 155.242188 287.347656 C 154.890625 288.730469 154.902344 290.09375 155.277344 291.433594 C 155.417969 292.855469 155.914062 294.15625 156.761719 295.34375 C 157.359375 296.023438 157.953125 296.707031 158.546875 297.386719 C 159.554688 298.339844 160.714844 298.988281 162.027344 299.332031 C 163.277344 299.894531 164.601562 300.117188 165.996094 300 C 166.917969 299.828125 167.835938 299.65625 168.757812 299.484375 C 170.550781 298.886719 172.074219 297.882812 173.328125 296.472656 C 174.613281 295.074219 175.390625 293.53125 175.683594 291.855469 C 175.695312 291.8125 175.707031 291.769531 175.71875 291.726562 C 175.953125 290.8125 175.964844 289.90625 175.878906 289.007812 C 175.871094 288.085938 175.761719 287.167969 175.421875 286.261719 C 175.390625 286.144531 175.324219 286.050781 175.285156 285.9375 C 175.179688 285.617188 175.027344 285.304688 174.878906 284.996094 C 174.722656 284.671875 174.566406 284.347656 174.367188 284.050781 C 174.300781 283.949219 174.269531 283.835938 174.199219 283.734375 C 173.898438 283.394531 173.601562 283.054688 173.304688 282.710938 C 173.058594 282.378906 172.789062 282.078125 172.503906 281.792969 C 172.472656 281.761719 172.441406 281.726562 172.414062 281.691406 C 172.335938 281.621094 172.253906 281.5625 172.179688 281.496094 C 172.039062 281.371094 171.898438 281.25 171.753906 281.136719 C 171.628906 281.042969 171.5 280.957031 171.375 280.867188 C 171.234375 280.773438 171.09375 280.679688 170.949219 280.59375 C 170.792969 280.5 170.632812 280.417969 170.472656 280.339844 C 170.378906 280.292969 170.292969 280.234375 170.195312 280.191406 C 170.152344 280.175781 170.109375 280.160156 170.070312 280.144531 C 169.703125 279.988281 169.328125 279.847656 168.933594 279.746094 Z M 239.917969 229.351562 C 234.40625 239.917969 250.328125 249.492188 255.867188 238.867188 C 261.378906 228.300781 245.457031 218.726562 239.917969 229.351562 Z M 258.964844 113.957031 L 254.800781 115.238281 C 252.003906 116.535156 249.722656 118.449219 247.953125 120.976562 C 246.609375 122.78125 245.796875 124.773438 245.503906 126.953125 C 244.867188 129.035156 244.769531 131.167969 245.21875 133.34375 C 245.515625 135.613281 246.34375 137.636719 247.703125 139.414062 C 248.753906 141.449219 250.265625 143.09375 252.238281 144.355469 C 253.53125 145.019531 254.824219 145.683594 256.113281 146.34375 C 258.882812 147.320312 261.710938 147.570312 264.605469 147.09375 C 265.996094 146.664062 267.382812 146.238281 268.773438 145.8125 C 271.566406 144.511719 273.851562 142.597656 275.617188 140.070312 C 276.960938 138.269531 277.777344 136.277344 278.066406 134.097656 C 278.707031 132.011719 278.800781 129.882812 278.351562 127.703125 C 278.054688 125.4375 277.226562 123.414062 275.867188 121.632812 C 274.816406 119.601562 273.304688 117.953125 271.332031 116.691406 C 270.042969 116.027344 268.75 115.367188 267.457031 114.703125 C 264.6875 113.726562 261.859375 113.480469 258.964844 113.957031 Z M 278.035156 159.957031 C 273.046875 169.519531 287.078125 178.988281 292.113281 169.332031 C 297.101562 159.769531 283.074219 150.300781 278.035156 159.957031 Z M 192.695312 84.972656 C 197.71875 75.335938 183.558594 65.855469 178.484375 75.582031 C 173.460938 85.21875 187.621094 94.699219 192.695312 84.972656 Z M 116.316406 210.523438 C 114.421875 210.195312 112.550781 210.355469 110.699219 211.003906 C 108.726562 211.542969 107.035156 212.523438 105.632812 213.941406 C 104.035156 215.070312 102.816406 216.539062 101.976562 218.351562 C 101.558594 219.53125 101.136719 220.707031 100.714844 221.886719 C 100.171875 224.410156 100.277344 226.902344 101.035156 229.371094 C 101.585938 230.5625 102.140625 231.75 102.695312 232.9375 C 104.132812 235.164062 106.027344 236.882812 108.378906 238.09375 C 108.550781 238.183594 108.71875 238.285156 108.898438 238.355469 C 110.59375 239.296875 112.394531 239.773438 114.296875 239.785156 C 116.191406 240.109375 118.0625 239.953125 119.914062 239.304688 C 121.882812 238.765625 123.574219 237.789062 124.980469 236.371094 C 126.574219 235.242188 127.792969 233.773438 128.632812 231.964844 C 129.054688 230.785156 129.472656 229.609375 129.894531 228.433594 C 130.4375 225.910156 130.335938 223.417969 129.582031 220.949219 C 129.027344 219.761719 128.472656 218.570312 127.917969 217.382812 C 126.484375 215.160156 124.59375 213.441406 122.242188 212.230469 C 122.078125 212.121094 121.894531 212.039062 121.71875 211.949219 C 120.019531 211.007812 118.21875 210.53125 116.316406 210.523438 Z M 116.316406 210.523438 "/></g></g></g><g clip-rule="nonzero" clip-path="url(#04282d50d1)"><g clip-rule="nonzero" clip-path="url(#1e26e47708)"><g clip-rule="nonzero" clip-path="url(#eddfd4f89e)"><path style=" stroke:none;fill-rule:nonzero;fill:#6e439e;fill-opacity:1;" d="M 226.449219 110.242188 C 228.621094 118.28125 216.371094 122.511719 214.15625 114.4375 C 213.542969 112.203125 199.097656 118.105469 196.027344 118.082031 C 189.179688 118.023438 184.453125 113.617188 178.6875 110.65625 C 159.78125 100.957031 144.164062 121.070312 134.203125 134.300781 C 129.15625 141 119.296875 132.511719 124.3125 125.871094 C 136.78125 109.371094 154.488281 90.042969 177.652344 96.234375 C 183.265625 97.738281 187.382812 102.429688 192.683594 104.042969 C 198.71875 105.875 204.273438 101.308594 209.984375 100.546875 C 217.230469 99.578125 224.476562 102.933594 226.449219 110.242188 Z M 235.519531 106.390625 C 231.644531 113.8125 243.226562 119.699219 247.097656 112.28125 C 250.96875 104.855469 239.390625 98.96875 235.519531 106.390625 Z M 235.519531 106.390625 "/></g></g></g><path style=" stroke:none;fill-rule:nonzero;fill:#490894;fill-opacity:1;" d="M 224.160156 135.46875 C 222.167969 138.621094 220.164062 141.761719 218.148438 144.886719 C 215.390625 143.117188 212.15625 142.121094 208.789062 142.121094 C 207.027344 142.121094 205.265625 142.398438 203.574219 142.941406 C 195.085938 145.652344 190.082031 153.75 191.402344 162.632812 C 192.128906 167.578125 195.128906 171.785156 199.3125 174.390625 C 196.601562 178.59375 193.902344 182.777344 191.179688 186.945312 C 190.136719 188.546875 188.65625 188.730469 187.058594 187.710938 C 180.339844 183.414062 173.609375 179.117188 166.914062 174.773438 C 165.035156 173.558594 164.886719 172.234375 166.230469 170.164062 C 174.824219 156.714844 183.453125 143.277344 192.0625 129.851562 C 194.34375 126.296875 196.578125 122.730469 198.882812 119.195312 C 200.332031 116.984375 201.546875 116.75 203.785156 118.1875 C 210.1875 122.265625 216.59375 126.367188 222.988281 130.476562 C 225.398438 132.019531 225.675781 133.085938 224.160156 135.46875 "/><path style=" stroke:none;fill-rule:nonzero;fill:#490894;fill-opacity:1;" d="M 206.96875 113.542969 C 209.828125 109.152344 212.875 104.507812 215.898438 99.863281 C 217.171875 97.90625 218.390625 95.925781 219.6875 93.992188 C 221.078125 91.894531 222.15625 91.582031 224.191406 92.855469 C 228.722656 95.695312 233.195312 98.601562 237.675781 101.496094 C 239.378906 102.597656 239.691406 104.054688 238.613281 105.746094 C 234.351562 112.464844 230.054688 119.171875 225.828125 125.785156 C 219.558594 121.710938 213.421875 117.726562 206.96875 113.542969 "/><path style=" stroke:none;fill-rule:nonzero;fill:#490894;fill-opacity:1;" d="M 164.667969 179.8125 C 171.058594 183.902344 177.1875 187.816406 183.59375 191.90625 C 181.472656 195.113281 179.320312 198.449219 177.082031 201.726562 C 176.132812 203.117188 174.71875 203.371094 173.320312 202.492188 C 168.605469 199.539062 163.914062 196.550781 159.269531 193.503906 C 157.808594 192.542969 157.472656 191.140625 158.445312 189.589844 C 160.519531 186.296875 162.628906 183.007812 164.667969 179.8125 "/><g clip-rule="nonzero" clip-path="url(#210d7c1b7c)"><path style=" stroke:none;fill-rule:nonzero;fill:#490894;fill-opacity:1;" d="M 208.996094 167.058594 C 204.6875 167.128906 201.339844 164.011719 201.269531 159.863281 C 201.175781 155.601562 204.222656 152.347656 208.464844 152.242188 C 212.808594 152.152344 215.863281 155.070312 215.957031 159.472656 C 216.0625 163.582031 212.898438 167 208.996094 167.058594 Z M 238.730469 267.171875 C 235.9375 264.707031 232.914062 262.503906 229.71875 260.535156 C 227.910156 259.414062 226.011719 258.394531 224.101562 257.445312 C 223.511719 257.152344 222.917969 256.851562 222.292969 256.5625 C 226.082031 253.273438 230.019531 250.34375 233.136719 246.742188 C 249.5625 227.8125 253.742188 206.453125 244.800781 182.800781 C 240.664062 171.921875 233.832031 163.085938 224.402344 156.214844 C 223.453125 155.53125 222.628906 154.410156 222.097656 153.332031 C 218.910156 146.695312 211.394531 143.347656 204.398438 145.546875 C 197.191406 147.839844 192.988281 154.675781 194.109375 162.226562 C 195.164062 169.257812 201.664062 174.460938 209.191406 174.425781 C 210.535156 174.390625 212.34375 174.425781 213.222656 175.214844 C 224.597656 185.394531 229.824219 198.007812 226.601562 213.195312 C 222.039062 234.808594 202.789062 247.621094 181 243.972656 C 174.71875 242.894531 169.042969 240.324219 164.214844 235.632812 C 166.21875 235.632812 168.1875 235.691406 170.191406 235.597656 C 174.269531 235.46875 176.667969 233.234375 176.667969 229.691406 C 176.632812 225.972656 174.164062 223.734375 169.996094 223.734375 C 164.050781 223.699219 158.097656 223.699219 152.15625 223.699219 C 144 223.699219 135.859375 223.667969 127.714844 223.734375 C 123.996094 223.769531 121.136719 226.457031 121.136719 229.746094 C 121.136719 233.070312 123.636719 235.398438 127.484375 235.597656 C 129.488281 235.691406 131.527344 235.503906 133.496094 235.726562 C 134.410156 235.828125 135.558594 236.476562 136.019531 237.207031 C 140.363281 244.503906 146.109375 250.414062 153.011719 255.242188 C 153.441406 255.566406 153.859375 255.867188 154.355469 256.261719 C 153.640625 256.585938 152.910156 256.957031 152.214844 257.28125 C 149.261719 258.753906 146.433594 260.398438 143.710938 262.238281 C 142.390625 263.152344 141.082031 264.117188 139.832031 265.101562 C 139.148438 265.65625 138.417969 266.316406 137.699219 266.941406 C 137.179688 267.394531 136.449219 267.765625 136.355469 268.484375 C 136.253906 269.375 136.378906 270.382812 136.355469 271.308594 C 136.355469 273.242188 136.320312 275.1875 136.320312 277.160156 L 240.363281 277.160156 L 240.363281 268.875 C 240.339844 268.816406 240.339844 268.75 240.304688 268.714844 C 239.933594 268.054688 239.285156 267.695312 238.730469 267.171875 "/></g></g></svg>