<svg xmlns="http://www.w3.org/2000/svg" xmlns:xlink="http://www.w3.org/1999/xlink" width="500" zoomAndPan="magnify" viewBox="0 0 375 374.999991" height="500" preserveAspectRatio="xMidYMid meet" version="1.2"><defs><clipPath id="50d228854a"><path d="M 27 15 L 369 15 L 369 371 L 27 371 Z M 27 15 "/></clipPath><clipPath id="afa1383879"><path d="M -52.4375 277.0625 L 123.617188 -60.515625 L 427.578125 98.007812 L 251.527344 435.585938 Z M -52.4375 277.0625 "/></clipPath><clipPath id="8025351cb2"><path d="M -52.4375 277.0625 L 123.617188 -60.515625 L 427.578125 98.007812 L 251.527344 435.585938 Z M -52.4375 277.0625 "/></clipPath><clipPath id="62e7b09841"><path d="M 58 143 L 302 143 L 302 307 L 58 307 Z M 58 143 "/></clipPath><clipPath id="7054de45be"><path d="M -52.4375 277.0625 L 123.617188 -60.515625 L 427.578125 98.007812 L 251.527344 435.585938 Z M -52.4375 277.0625 "/></clipPath><clipPath id="6fe729eeea"><path d="M -52.4375 277.0625 L 123.617188 -60.515625 L 427.578125 98.007812 L 251.527344 435.585938 Z M -52.4375 277.0625 "/></clipPath><clipPath id="1522617338"><path d="M 127 181 L 201 181 L 201 207 L 127 207 Z M 127 181 "/></clipPath><clipPath id="a5d56df417"><path d="M -52.4375 277.0625 L 123.617188 -60.515625 L 427.578125 98.007812 L 251.527344 435.585938 Z M -52.4375 277.0625 "/></clipPath><clipPath id="dee50f1f7d"><path d="M -52.4375 277.0625 L 123.617188 -60.515625 L 427.578125 98.007812 L 251.527344 435.585938 Z M -52.4375 277.0625 "/></clipPath><clipPath id="c1d5477e8d"><path d="M 70 36 L 330 36 L 330 343 L 70 343 Z M 70 36 "/></clipPath><clipPath id="4c116a8c77"><path d="M -52.4375 277.0625 L 123.617188 -60.515625 L 427.578125 98.007812 L 251.527344 435.585938 Z M -52.4375 277.0625 "/></clipPath><clipPath id="585e848a40"><path d="M -52.4375 277.0625 L 123.617188 -60.515625 L 427.578125 98.007812 L 251.527344 435.585938 Z M -52.4375 277.0625 "/></clipPath><clipPath id="583ced6226"><path d="M 100 67 L 269 67 L 269 124 L 100 124 Z M 100 67 "/></clipPath><clipPath id="9b4f4940b0"><path d="M -52.4375 277.0625 L 123.617188 -60.515625 L 427.578125 98.007812 L 251.527344 435.585938 Z M -52.4375 277.0625 "/></clipPath><clipPath id="dd79a9b427"><path d="M -52.4375 277.0625 L 123.617188 -60.515625 L 427.578125 98.007812 L 251.527344 435.585938 Z M -52.4375 277.0625 "/></clipPath><clipPath id="3b6f8569b9"><path d="M 35 23 L 361 23 L 361 362 L 35 362 Z M 35 23 "/></clipPath><clipPath id="ba6daba40e"><path d="M -41.417969 272.945312 L 126.429688 -48.898438 L 416.089844 102.164062 L 248.242188 424.007812 Z M -41.417969 272.945312 "/></clipPath><clipPath id="bc9419fe36"><path d="M -41.417969 272.945312 L 126.429688 -48.898438 L 416.089844 102.164062 L 248.242188 424.007812 Z M -41.417969 272.945312 "/></clipPath><clipPath id="86f4355829"><path d="M 64 145 L 297 145 L 297 301 L 64 301 Z M 64 145 "/></clipPath><clipPath id="bca2828fc3"><path d="M -41.417969 272.945312 L 126.429688 -48.898438 L 416.089844 102.164062 L 248.242188 424.007812 Z M -41.417969 272.945312 "/></clipPath><clipPath id="a6ed78b32e"><path d="M -41.417969 272.945312 L 126.429688 -48.898438 L 416.089844 102.164062 L 248.242188 424.007812 Z M -41.417969 272.945312 "/></clipPath><clipPath id="fc21c16644"><path d="M 130 182 L 201 182 L 201 206 L 130 206 Z M 130 182 "/></clipPath><clipPath id="43b2bfd6a9"><path d="M -41.417969 272.945312 L 126.429688 -48.898438 L 416.089844 102.164062 L 248.242188 424.007812 Z M -41.417969 272.945312 "/></clipPath><clipPath id="426f91292e"><path d="M -41.417969 272.945312 L 126.429688 -48.898438 L 416.089844 102.164062 L 248.242188 424.007812 Z M -41.417969 272.945312 "/></clipPath><clipPath id="5afe88e71d"><path d="M 75 42 L 323 42 L 323 336 L 75 336 Z M 75 42 "/></clipPath><clipPath id="5f2eb538c8"><path d="M -41.417969 272.945312 L 126.429688 -48.898438 L 416.089844 102.164062 L 248.242188 424.007812 Z M -41.417969 272.945312 "/></clipPath><clipPath id="f2873fa621"><path d="M -41.417969 272.945312 L 126.429688 -48.898438 L 416.089844 102.164062 L 248.242188 424.007812 Z M -41.417969 272.945312 "/></clipPath><clipPath id="fd73d68426"><path d="M 104 73 L 265 73 L 265 127 L 104 127 Z M 104 73 "/></clipPath><clipPath id="7640dbcb10"><path d="M -41.417969 272.945312 L 126.429688 -48.898438 L 416.089844 102.164062 L 248.242188 424.007812 Z M -41.417969 272.945312 "/></clipPath><clipPath id="e9cb7c9ec3"><path d="M -41.417969 272.945312 L 126.429688 -48.898438 L 416.089844 102.164062 L 248.242188 424.007812 Z M -41.417969 272.945312 "/></clipPath><clipPath id="0a7ffe8ccb"><path d="M 46 36 L 348 36 L 348 349 L 46 349 Z M 46 36 "/></clipPath><clipPath id="d2433ae5c1"><path d="M -23.605469 266.296875 L 131.1875 -30.515625 L 398.675781 108.984375 L 243.882812 405.796875 Z M -23.605469 266.296875 "/></clipPath><clipPath id="b99b0ba963"><path d="M -23.605469 266.296875 L 131.1875 -30.515625 L 398.675781 108.984375 L 243.882812 405.796875 Z M -23.605469 266.296875 "/></clipPath><clipPath id="f1021a9d3a"><path d="M 74 148 L 289 148 L 289 293 L 74 293 Z M 74 148 "/></clipPath><clipPath id="69a80904df"><path d="M -23.605469 266.296875 L 131.1875 -30.515625 L 398.675781 108.984375 L 243.882812 405.796875 Z M -23.605469 266.296875 "/></clipPath><clipPath id="038f8cf5bf"><path d="M -23.605469 266.296875 L 131.1875 -30.515625 L 398.675781 108.984375 L 243.882812 405.796875 Z M -23.605469 266.296875 "/></clipPath><clipPath id="de13791964"><path d="M 134 182 L 200 182 L 200 205 L 134 205 Z M 134 182 "/></clipPath><clipPath id="e29bc8e00b"><path d="M -23.605469 266.296875 L 131.1875 -30.515625 L 398.675781 108.984375 L 243.882812 405.796875 Z M -23.605469 266.296875 "/></clipPath><clipPath id="22e47237a2"><path d="M -23.605469 266.296875 L 131.1875 -30.515625 L 398.675781 108.984375 L 243.882812 405.796875 Z M -23.605469 266.296875 "/></clipPath><clipPath id="2ae86dd642"><path d="M 84 54 L 313 54 L 313 325 L 84 325 Z M 84 54 "/></clipPath><clipPath id="c936856544"><path d="M -23.605469 266.296875 L 131.1875 -30.515625 L 398.675781 108.984375 L 243.882812 405.796875 Z M -23.605469 266.296875 "/></clipPath><clipPath id="8f72083da1"><path d="M -23.605469 266.296875 L 131.1875 -30.515625 L 398.675781 108.984375 L 243.882812 405.796875 Z M -23.605469 266.296875 "/></clipPath><clipPath id="6e30900afc"><path d="M 111 82 L 259 82 L 259 132 L 111 132 Z M 111 82 "/></clipPath><clipPath id="73a8413e67"><path d="M -23.605469 266.296875 L 131.1875 -30.515625 L 398.675781 108.984375 L 243.882812 405.796875 Z M -23.605469 266.296875 "/></clipPath><clipPath id="87677af5be"><path d="M -23.605469 266.296875 L 131.1875 -30.515625 L 398.675781 108.984375 L 243.882812 405.796875 Z M -23.605469 266.296875 "/></clipPath><clipPath id="0936746242"><path d="M 211 72.070312 L 252 72.070312 L 252 115 L 211 115 Z M 211 72.070312 "/></clipPath><clipPath id="0b35ac92a8"><path d="M 105.113281 138 L 265 138 L 265 302.765625 L 105.113281 302.765625 Z M 105.113281 138 "/></clipPath><clipPath id="00fdccf6ed"><rect x="0" width="375" y="0" height="375"/></clipPath></defs><g id="c28518e607"><g transform="matrix(1,0,0,1,0,0)"><g clip-path="url(#00fdccf6ed)"><g clip-rule="nonzero" clip-path="url(#50d228854a)"><g clip-rule="nonzero" clip-path="url(#afa1383879)"><g clip-rule="nonzero" clip-path="url(#8025351cb2)"><path style=" stroke:none;fill-rule:nonzero;fill:#000000;fill-opacity:1;" d="M 340.558594 96.539062 L 340.542969 97.121094 C 340.273438 107.421875 342.988281 117.578125 348.363281 126.371094 L 361.09375 147.203125 C 374.664062 169.402344 370.257812 198.15625 350.660156 215.273438 L 333.644531 230.136719 C 322.585938 239.796875 315.992188 253.585938 315.417969 268.257812 L 314.710938 286.136719 C 313.519531 316.425781 287.386719 339.648438 257.171875 337.277344 L 247.660156 336.53125 C 237.523438 335.738281 227.371094 337.851562 218.398438 342.628906 L 178.566406 363.820312 C 154.644531 376.546875 124.980469 369.34375 109.5625 347.0625 L 93.875 324.390625 C 91.078125 320.351562 87.742188 316.71875 83.953125 313.59375 L 47.21875 283.273438 C 29.875 268.957031 23.355469 245.308594 30.917969 224.125 L 40.816406 196.402344 C 44.382812 186.421875 44.894531 175.605469 42.292969 165.335938 L 37.054688 144.640625 C 31.03125 120.855469 41.992188 96.027344 63.621094 84.449219 L 105.671875 61.941406 C 111.042969 59.0625 115.882812 55.292969 119.980469 50.78125 L 135.964844 33.199219 C 156.058594 11.101562 190.363281 9.777344 212.101562 30.253906 C 223.234375 40.742188 238.328125 45.953125 253.558594 44.570312 L 282.335938 41.953125 C 314.167969 39.058594 341.394531 64.585938 340.558594 96.539062 Z M 340.558594 96.539062 "/></g></g></g><g clip-rule="nonzero" clip-path="url(#62e7b09841)"><g clip-rule="nonzero" clip-path="url(#7054de45be)"><g clip-rule="nonzero" clip-path="url(#6fe729eeea)"><path style=" stroke:none;fill-rule:nonzero;fill:#000000;fill-opacity:1;" d="M 300.765625 184.132812 C 305.472656 209.238281 294.0625 234.949219 279.023438 254.542969 C 262.871094 275.652344 241.011719 292.046875 215.675781 300.402344 C 190.535156 308.695312 162.933594 308.265625 137.984375 299.414062 C 119.816406 292.957031 103.535156 281.8125 91.164062 267.195312 C 87.105469 263.539062 83.375 259.628906 79.992188 255.308594 C 63.964844 234.753906 54.722656 206.53125 60.691406 180.570312 C 63.695312 167.386719 71.640625 155.238281 83.847656 148.921875 C 95.585938 142.816406 109.089844 143.136719 120.339844 150.21875 C 131.183594 157.023438 138.449219 167.792969 148.414062 175.582031 C 157.640625 182.78125 168.042969 183.257812 178.808594 179.398438 C 202.074219 171.113281 217.660156 148.265625 242.910156 144.160156 C 269.28125 139.855469 295.796875 157.648438 300.765625 184.132812 Z M 300.765625 184.132812 "/></g></g></g><g clip-rule="nonzero" clip-path="url(#1522617338)"><g clip-rule="nonzero" clip-path="url(#a5d56df417)"><g clip-rule="nonzero" clip-path="url(#dee50f1f7d)"><path style=" stroke:none;fill-rule:nonzero;fill:#000000;fill-opacity:1;" d="M 160.195312 191.046875 C 164.109375 189.933594 167.910156 192.660156 169.003906 196.335938 C 169.519531 198.070312 169.101562 200.308594 168.183594 201.835938 C 167.117188 203.609375 165.585938 204.453125 163.714844 205.144531 C 162.113281 205.738281 160.21875 206.015625 158.496094 206.164062 C 156.527344 206.335938 154.546875 206.433594 152.578125 206.257812 C 149.574219 205.988281 146.546875 205.386719 143.710938 204.335938 C 137.511719 202.042969 132.417969 198.128906 128.503906 192.839844 C 126.34375 189.917969 127.746094 185.496094 130.351562 183.472656 C 131.671875 182.441406 133.160156 181.957031 134.824219 181.894531 C 136.378906 181.835938 138.890625 182.722656 139.882812 183.996094 C 142.472656 187.320312 145.578125 189.746094 149.628906 191.003906 C 150.371094 191.234375 151.128906 191.382812 151.882812 191.550781 C 151.5 191.449219 151.355469 191.375 152.394531 191.660156 C 152.34375 191.652344 152.292969 191.644531 152.234375 191.632812 C 152.378906 191.667969 152.527344 191.695312 152.667969 191.734375 C 152.554688 191.703125 152.488281 191.683594 152.394531 191.660156 C 152.414062 191.664062 152.433594 191.667969 152.453125 191.667969 C 152.996094 191.730469 153.542969 191.773438 154.089844 191.800781 C 154.675781 191.832031 155.261719 191.824219 155.847656 191.835938 C 155.941406 191.832031 155.996094 191.828125 156.058594 191.828125 C 156.347656 191.800781 156.632812 191.769531 156.921875 191.734375 C 157.464844 191.664062 158.011719 191.585938 158.558594 191.492188 C 158.566406 191.457031 160.070312 191.082031 160.195312 191.046875 Z M 195.730469 189.609375 C 195.734375 189.609375 195.734375 189.613281 195.738281 189.613281 C 195.734375 189.613281 195.734375 189.609375 195.730469 189.609375 C 195.691406 189.597656 195.648438 189.601562 195.605469 189.589844 C 195.210938 189.519531 194.820312 189.445312 194.421875 189.375 C 195.753906 189.558594 196.164062 189.613281 195.527344 189.519531 C 195.140625 189.464844 194.75 189.414062 194.359375 189.363281 C 193.917969 189.285156 193.476562 189.203125 193.03125 189.125 C 192.085938 188.84375 191.140625 188.8125 190.199219 189.03125 C 189.210938 189.085938 188.292969 189.390625 187.445312 189.945312 C 186.597656 190.421875 185.921875 191.0625 185.421875 191.871094 C 184.800781 192.578125 184.386719 193.402344 184.175781 194.34375 C 184.097656 194.964844 184.019531 195.589844 183.945312 196.210938 C 183.960938 197.542969 184.3125 198.785156 184.996094 199.929688 C 185.386719 200.417969 185.78125 200.910156 186.171875 201.398438 C 187.09375 202.273438 188.164062 202.875 189.390625 203.199219 C 190.441406 203.359375 191.492188 203.515625 192.546875 203.675781 C 191.925781 203.582031 191.304688 203.488281 190.683594 203.394531 C 192.210938 203.875 193.75 203.957031 195.300781 203.632812 C 196.578125 203.324219 197.691406 202.722656 198.640625 201.820312 C 200.492188 200.050781 201.28125 197.375 200.691406 194.882812 C 200.496094 193.902344 200.078125 193.042969 199.433594 192.304688 C 198.941406 191.496094 198.273438 190.855469 197.429688 190.378906 C 196.886719 190.046875 196.320312 189.789062 195.730469 189.609375 Z M 195.730469 189.609375 "/></g></g></g><g clip-rule="nonzero" clip-path="url(#c1d5477e8d)"><g clip-rule="nonzero" clip-path="url(#4c116a8c77)"><g clip-rule="nonzero" clip-path="url(#585e848a40)"><path style=" stroke:none;fill-rule:nonzero;fill:#000000;fill-opacity:1;" d="M 159.652344 110.855469 C 160.78125 111.265625 161.914062 111.679688 163.042969 112.09375 C 164.746094 112.894531 166.132812 114.042969 167.203125 115.542969 C 168.554688 116.878906 169.492188 118.484375 170.011719 120.359375 C 170.671875 122.1875 170.832031 124.039062 170.5 125.914062 C 170.488281 127.753906 170.019531 129.492188 169.09375 131.128906 C 167.945312 133.328125 166.332031 135.113281 164.253906 136.476562 C 163.113281 137.015625 161.972656 137.554688 160.828125 138.09375 C 158.398438 138.859375 155.9375 138.964844 153.453125 138.414062 C 152.320312 138.003906 151.191406 137.589844 150.058594 137.175781 C 148.359375 136.375 146.972656 135.226562 145.898438 133.730469 C 144.546875 132.394531 143.609375 130.789062 143.09375 128.914062 C 142.433594 127.082031 142.269531 125.230469 142.601562 123.359375 C 142.617188 121.515625 143.085938 119.777344 144.011719 118.140625 C 145.160156 115.941406 146.773438 114.15625 148.847656 112.792969 C 149.992188 112.253906 151.132812 111.714844 152.273438 111.175781 C 154.707031 110.410156 157.164062 110.304688 159.652344 110.855469 Z M 234.585938 166.109375 C 225.824219 182.910156 252.449219 195.339844 261.183594 178.589844 C 269.945312 161.789062 243.320312 149.359375 234.585938 166.109375 Z M 162.574219 315.574219 C 162.074219 315.351562 161.566406 315.179688 161.046875 315.035156 C 160.992188 315.015625 160.9375 314.996094 160.878906 314.976562 C 160.808594 314.960938 160.734375 314.960938 160.660156 314.945312 C 159.5625 314.683594 158.425781 314.582031 157.25 314.683594 C 157.242188 314.683594 157.234375 314.683594 157.230469 314.6875 C 155.992188 314.75 154.761719 314.976562 153.542969 315.375 C 152.414062 315.699219 151.421875 316.226562 150.496094 316.855469 C 150.382812 316.910156 150.265625 316.964844 150.152344 317.019531 C 149.058594 317.753906 148.109375 318.617188 147.277344 319.582031 C 146.519531 320.40625 145.878906 321.332031 145.390625 322.394531 C 144.992188 323.523438 144.59375 324.65625 144.195312 325.785156 C 143.726562 327.636719 143.742188 329.464844 144.246094 331.269531 C 144.433594 333.175781 145.097656 334.921875 146.238281 336.515625 C 147.039062 337.429688 147.835938 338.34375 148.636719 339.257812 C 149.988281 340.539062 151.542969 341.410156 153.308594 341.871094 C 154.984375 342.625 156.761719 342.925781 158.632812 342.765625 C 159.871094 342.535156 161.105469 342.304688 162.339844 342.074219 C 164.746094 341.269531 166.792969 339.921875 168.476562 338.03125 C 170.203125 336.152344 171.242188 334.082031 171.640625 331.832031 C 171.65625 331.777344 171.671875 331.71875 171.6875 331.664062 C 172 330.433594 172.015625 329.21875 171.898438 328.007812 C 171.890625 326.769531 171.742188 325.539062 171.289062 324.324219 C 171.246094 324.167969 171.152344 324.042969 171.101562 323.890625 C 170.960938 323.457031 170.757812 323.039062 170.558594 322.625 C 170.347656 322.1875 170.136719 321.753906 169.871094 321.355469 C 169.78125 321.21875 169.738281 321.066406 169.644531 320.933594 C 169.242188 320.476562 168.84375 320.015625 168.445312 319.558594 C 168.117188 319.113281 167.753906 318.710938 167.371094 318.328125 C 167.328125 318.28125 167.289062 318.234375 167.246094 318.1875 C 167.148438 318.09375 167.035156 318.015625 166.933594 317.925781 C 166.746094 317.757812 166.558594 317.597656 166.359375 317.445312 C 166.195312 317.316406 166.023438 317.199219 165.851562 317.085938 C 165.664062 316.957031 165.476562 316.828125 165.28125 316.714844 C 165.074219 316.589844 164.855469 316.480469 164.640625 316.371094 C 164.515625 316.308594 164.398438 316.234375 164.269531 316.175781 C 164.214844 316.152344 164.15625 316.132812 164.101562 316.113281 C 163.609375 315.902344 163.105469 315.714844 162.574219 315.574219 Z M 257.871094 247.925781 C 250.472656 262.109375 271.84375 274.960938 279.28125 260.699219 C 286.675781 246.511719 265.308594 233.664062 257.871094 247.925781 Z M 283.4375 93.015625 L 277.847656 94.734375 C 274.09375 96.476562 271.03125 99.046875 268.65625 102.4375 C 266.855469 104.859375 265.757812 107.53125 265.371094 110.460938 C 264.511719 113.257812 264.382812 116.117188 264.984375 119.042969 C 265.382812 122.085938 266.496094 124.800781 268.320312 127.191406 C 269.734375 129.917969 271.761719 132.128906 274.410156 133.824219 C 276.144531 134.714844 277.878906 135.605469 279.613281 136.492188 C 283.328125 137.804688 287.128906 138.136719 291.011719 137.496094 C 292.878906 136.921875 294.742188 136.351562 296.605469 135.777344 C 300.359375 134.03125 303.421875 131.464844 305.796875 128.074219 C 307.597656 125.652344 308.691406 122.976562 309.082031 120.050781 C 309.941406 117.253906 310.070312 114.394531 309.46875 111.46875 C 309.066406 108.425781 307.953125 105.707031 306.128906 103.320312 C 304.71875 100.589844 302.691406 98.378906 300.042969 96.683594 C 298.308594 95.796875 296.574219 94.90625 294.839844 94.015625 C 291.125 92.707031 287.324219 92.371094 283.4375 93.015625 Z M 309.042969 154.765625 C 302.34375 167.605469 321.179688 180.316406 327.9375 167.355469 C 334.632812 154.515625 315.800781 141.804688 309.042969 154.765625 Z M 194.472656 54.105469 C 201.21875 41.167969 182.207031 28.441406 175.398438 41.496094 C 168.652344 54.433594 187.664062 67.160156 194.472656 54.105469 Z M 91.941406 222.648438 C 89.398438 222.210938 86.886719 222.425781 84.398438 223.296875 C 81.75 224.019531 79.484375 225.332031 77.597656 227.238281 C 75.453125 228.753906 73.820312 230.726562 72.691406 233.160156 C 72.128906 234.738281 71.5625 236.320312 71 237.902344 C 70.269531 241.289062 70.410156 244.640625 71.425781 247.953125 C 72.167969 249.550781 72.914062 251.144531 73.660156 252.742188 C 75.585938 255.730469 78.128906 258.035156 81.289062 259.660156 C 81.515625 259.777344 81.742188 259.921875 81.980469 260.011719 C 84.261719 261.277344 86.679688 261.917969 89.230469 261.929688 C 91.769531 262.367188 94.285156 262.15625 96.769531 261.285156 C 99.417969 260.566406 101.683594 259.253906 103.570312 257.347656 C 105.714844 255.835938 107.347656 253.863281 108.476562 251.433594 C 109.039062 249.851562 109.605469 248.273438 110.171875 246.691406 C 110.898438 243.308594 110.761719 239.957031 109.75 236.644531 C 109.003906 235.050781 108.261719 233.453125 107.519531 231.859375 C 105.59375 228.871094 103.050781 226.566406 99.894531 224.941406 C 99.675781 224.796875 99.429688 224.6875 99.195312 224.5625 C 96.914062 223.300781 94.496094 222.660156 91.941406 222.648438 Z M 91.941406 222.648438 "/></g></g></g><g clip-rule="nonzero" clip-path="url(#583ced6226)"><g clip-rule="nonzero" clip-path="url(#9b4f4940b0)"><g clip-rule="nonzero" clip-path="url(#dd79a9b427)"><path style=" stroke:none;fill-rule:nonzero;fill:#000000;fill-opacity:1;" d="M 239.789062 88.027344 C 242.703125 98.820312 226.257812 104.5 223.285156 93.660156 C 222.460938 90.660156 203.074219 98.585938 198.949219 98.550781 C 189.753906 98.472656 183.414062 92.558594 175.671875 88.585938 C 150.289062 75.5625 129.328125 102.5625 115.953125 120.324219 C 109.175781 129.320312 95.945312 117.925781 102.679688 109.011719 C 119.414062 86.855469 143.1875 60.910156 174.28125 69.226562 C 181.816406 71.238281 187.34375 77.542969 194.460938 79.703125 C 202.5625 82.164062 210.019531 76.035156 217.683594 75.011719 C 227.414062 73.710938 237.140625 78.21875 239.789062 88.027344 Z M 251.964844 82.855469 C 246.765625 92.824219 262.308594 100.726562 267.503906 90.761719 C 272.703125 80.796875 257.160156 72.894531 251.964844 82.855469 Z M 251.964844 82.855469 "/></g></g></g><g clip-rule="nonzero" clip-path="url(#3b6f8569b9)"><g clip-rule="nonzero" clip-path="url(#ba6daba40e)"><g clip-rule="nonzero" clip-path="url(#bc9419fe36)"><path style=" stroke:none;fill-rule:nonzero;fill:#ffffff;fill-opacity:1;" d="M 333.523438 100.714844 L 333.507812 101.273438 C 333.25 111.097656 335.84375 120.789062 340.96875 129.175781 L 353.117188 149.050781 C 366.0625 170.234375 361.859375 197.664062 343.160156 213.996094 L 326.929688 228.175781 C 316.378906 237.394531 310.089844 250.546875 309.535156 264.542969 L 308.863281 281.605469 C 307.726562 310.5 282.796875 332.660156 253.964844 330.394531 L 244.894531 329.683594 C 235.222656 328.925781 225.539062 330.941406 216.976562 335.5 L 178.972656 355.71875 C 156.152344 367.863281 127.851562 360.988281 113.140625 339.730469 L 98.171875 318.101562 C 95.507812 314.25 92.320312 310.78125 88.707031 307.800781 L 53.660156 278.871094 C 37.113281 265.210938 30.894531 242.648438 38.109375 222.441406 L 47.554688 195.992188 C 50.953125 186.46875 51.441406 176.152344 48.960938 166.351562 L 43.964844 146.609375 C 38.21875 123.917969 48.671875 100.230469 69.308594 89.179688 L 109.425781 67.707031 C 114.550781 64.964844 119.167969 61.363281 123.078125 57.0625 L 138.332031 40.289062 C 157.5 19.207031 190.230469 17.9375 210.96875 37.476562 C 221.589844 47.480469 235.988281 52.453125 250.519531 51.132812 L 277.976562 48.636719 C 308.34375 45.878906 334.320312 70.230469 333.523438 100.714844 Z M 333.523438 100.714844 "/></g></g></g><g clip-rule="nonzero" clip-path="url(#86f4355829)"><g clip-rule="nonzero" clip-path="url(#bca2828fc3)"><g clip-rule="nonzero" clip-path="url(#a6ed78b32e)"><path style=" stroke:none;fill-rule:nonzero;fill:#ffffff;fill-opacity:1;" d="M 295.558594 184.285156 C 300.046875 208.238281 289.164062 232.769531 274.816406 251.460938 C 259.40625 271.601562 238.550781 287.242188 214.378906 295.214844 C 190.394531 303.128906 164.058594 302.714844 140.253906 294.273438 C 122.921875 288.109375 107.390625 277.476562 95.585938 263.535156 C 91.714844 260.042969 88.15625 256.3125 84.929688 252.191406 C 69.636719 232.582031 60.820312 205.65625 66.511719 180.886719 C 69.382812 168.308594 76.957031 156.71875 88.609375 150.691406 C 99.808594 144.867188 112.6875 145.175781 123.421875 151.929688 C 133.769531 158.421875 140.699219 168.695312 150.207031 176.125 C 159.007812 183 168.933594 183.453125 179.203125 179.769531 C 201.402344 171.867188 216.273438 150.066406 240.363281 146.152344 C 265.523438 142.042969 290.816406 159.015625 295.558594 184.285156 Z M 295.558594 184.285156 "/></g></g></g><g clip-rule="nonzero" clip-path="url(#fc21c16644)"><g clip-rule="nonzero" clip-path="url(#43b2bfd6a9)"><g clip-rule="nonzero" clip-path="url(#426f91292e)"><path style=" stroke:none;fill-rule:nonzero;fill:#ffffff;fill-opacity:1;" d="M 161.445312 190.882812 C 165.183594 189.820312 168.808594 192.421875 169.851562 195.929688 C 170.34375 197.585938 169.945312 199.71875 169.066406 201.175781 C 168.050781 202.867188 166.589844 203.671875 164.804688 204.332031 C 163.277344 204.898438 161.46875 205.164062 159.824219 205.304688 C 157.945312 205.46875 156.058594 205.5625 154.179688 205.394531 C 151.3125 205.136719 148.421875 204.5625 145.71875 203.5625 C 139.804688 201.375 134.945312 197.640625 131.210938 192.59375 C 129.148438 189.808594 130.488281 185.585938 132.972656 183.65625 C 134.234375 182.675781 135.652344 182.210938 137.242188 182.148438 C 138.726562 182.09375 141.121094 182.9375 142.066406 184.15625 C 144.539062 187.328125 147.503906 189.644531 151.367188 190.84375 C 152.074219 191.0625 152.796875 191.203125 153.515625 191.363281 C 153.148438 191.265625 153.015625 191.195312 154.007812 191.46875 C 153.957031 191.460938 153.90625 191.453125 153.851562 191.441406 C 153.988281 191.476562 154.128906 191.5 154.265625 191.539062 C 154.160156 191.507812 154.09375 191.492188 154.007812 191.46875 C 154.023438 191.46875 154.042969 191.472656 154.058594 191.476562 C 154.578125 191.535156 155.097656 191.578125 155.621094 191.601562 C 156.179688 191.632812 156.738281 191.625 157.296875 191.632812 C 157.386719 191.632812 157.441406 191.628906 157.5 191.628906 C 157.777344 191.601562 158.050781 191.570312 158.324219 191.535156 C 158.84375 191.472656 159.367188 191.398438 159.882812 191.308594 C 159.890625 191.273438 161.328125 190.914062 161.445312 190.882812 Z M 195.351562 189.511719 C 195.351562 189.511719 195.355469 189.511719 195.355469 189.515625 C 195.355469 189.511719 195.351562 189.511719 195.351562 189.511719 C 195.3125 189.5 195.269531 189.503906 195.230469 189.492188 C 194.855469 189.425781 194.480469 189.355469 194.101562 189.289062 C 195.375 189.464844 195.761719 189.515625 195.15625 189.425781 C 194.785156 189.371094 194.414062 189.324219 194.042969 189.277344 C 193.621094 189.203125 193.199219 189.125 192.773438 189.050781 C 191.871094 188.78125 190.96875 188.75 190.070312 188.960938 C 189.128906 189.011719 188.253906 189.304688 187.445312 189.832031 C 186.636719 190.285156 185.992188 190.898438 185.515625 191.667969 C 184.921875 192.34375 184.523438 193.128906 184.324219 194.027344 C 184.253906 194.621094 184.179688 195.214844 184.105469 195.808594 C 184.121094 197.082031 184.457031 198.265625 185.109375 199.355469 C 185.480469 199.824219 185.855469 200.289062 186.230469 200.757812 C 187.109375 201.59375 188.132812 202.164062 189.300781 202.476562 C 190.304688 202.628906 191.308594 202.777344 192.308594 202.929688 C 191.71875 202.839844 191.125 202.75 190.535156 202.660156 C 191.992188 203.121094 193.460938 203.199219 194.941406 202.890625 C 196.15625 202.597656 197.21875 202.019531 198.125 201.160156 C 199.890625 199.472656 200.644531 196.917969 200.082031 194.542969 C 199.894531 193.605469 199.496094 192.785156 198.882812 192.082031 C 198.410156 191.3125 197.773438 190.699219 196.972656 190.242188 C 196.453125 189.925781 195.914062 189.683594 195.351562 189.511719 Z M 195.351562 189.511719 "/></g></g></g><g clip-rule="nonzero" clip-path="url(#5afe88e71d)"><g clip-rule="nonzero" clip-path="url(#5f2eb538c8)"><g clip-rule="nonzero" clip-path="url(#f2873fa621)"><path style=" stroke:none;fill-rule:nonzero;fill:#ffffff;fill-opacity:1;" d="M 160.929688 114.375 C 162.007812 114.769531 163.085938 115.164062 164.164062 115.554688 C 165.785156 116.320312 167.109375 117.417969 168.132812 118.84375 C 169.425781 120.121094 170.316406 121.652344 170.8125 123.441406 C 171.441406 125.1875 171.597656 126.953125 171.277344 128.738281 C 171.265625 130.496094 170.820312 132.15625 169.9375 133.714844 C 168.839844 135.816406 167.300781 137.519531 165.320312 138.820312 C 164.230469 139.332031 163.140625 139.847656 162.050781 140.363281 C 159.730469 141.09375 157.386719 141.195312 155.011719 140.667969 C 153.933594 140.273438 152.855469 139.882812 151.777344 139.488281 C 150.152344 138.722656 148.832031 137.625 147.808594 136.199219 C 146.515625 134.925781 145.625 133.390625 145.128906 131.601562 C 144.5 129.855469 144.34375 128.089844 144.664062 126.304688 C 144.675781 124.546875 145.121094 122.886719 146.003906 121.328125 C 147.101562 119.226562 148.640625 117.523438 150.621094 116.222656 C 151.710938 115.710938 152.800781 115.195312 153.890625 114.679688 C 156.210938 113.953125 158.554688 113.847656 160.929688 114.375 Z M 232.417969 167.089844 C 224.058594 183.121094 249.460938 194.976562 257.796875 178.996094 C 266.15625 162.96875 240.753906 151.109375 232.417969 167.089844 Z M 163.71875 309.691406 C 163.242188 309.476562 162.753906 309.3125 162.261719 309.175781 C 162.207031 309.15625 162.152344 309.136719 162.101562 309.117188 C 162.03125 309.105469 161.960938 309.101562 161.890625 309.089844 C 160.84375 308.839844 159.757812 308.742188 158.636719 308.839844 C 158.628906 308.839844 158.621094 308.839844 158.617188 308.84375 C 157.4375 308.902344 156.265625 309.117188 155.101562 309.5 C 154.023438 309.808594 153.078125 310.3125 152.191406 310.910156 C 152.082031 310.964844 151.972656 311.015625 151.863281 311.070312 C 150.820312 311.769531 149.914062 312.589844 149.125 313.515625 C 148.398438 314.296875 147.789062 315.183594 147.324219 316.195312 C 146.941406 317.273438 146.5625 318.351562 146.183594 319.429688 C 145.734375 321.199219 145.75 322.941406 146.230469 324.664062 C 146.410156 326.480469 147.042969 328.148438 148.132812 329.667969 C 148.894531 330.539062 149.65625 331.414062 150.417969 332.285156 C 151.707031 333.507812 153.191406 334.335938 154.875 334.777344 C 156.476562 335.496094 158.171875 335.78125 159.957031 335.628906 C 161.136719 335.410156 162.316406 335.191406 163.492188 334.96875 C 165.789062 334.207031 167.742188 332.917969 169.347656 331.113281 C 170.992188 329.320312 171.988281 327.347656 172.363281 325.199219 C 172.378906 325.144531 172.394531 325.09375 172.410156 325.039062 C 172.710938 323.863281 172.726562 322.707031 172.613281 321.550781 C 172.605469 320.371094 172.460938 319.195312 172.03125 318.039062 C 171.988281 317.886719 171.902344 317.769531 171.855469 317.625 C 171.714844 317.210938 171.523438 316.8125 171.332031 316.414062 C 171.132812 316 170.929688 315.585938 170.679688 315.203125 C 170.59375 315.074219 170.550781 314.929688 170.460938 314.800781 C 170.078125 314.363281 169.699219 313.925781 169.316406 313.492188 C 169.003906 313.066406 168.65625 312.679688 168.292969 312.316406 C 168.253906 312.269531 168.214844 312.226562 168.175781 312.183594 C 168.078125 312.089844 167.972656 312.019531 167.875 311.929688 C 167.699219 311.773438 167.519531 311.617188 167.328125 311.472656 C 167.171875 311.351562 167.007812 311.242188 166.84375 311.128906 C 166.664062 311.007812 166.488281 310.886719 166.296875 310.777344 C 166.101562 310.660156 165.894531 310.554688 165.6875 310.449219 C 165.570312 310.390625 165.457031 310.316406 165.335938 310.261719 C 165.28125 310.242188 165.226562 310.222656 165.171875 310.203125 C 164.703125 310 164.222656 309.824219 163.71875 309.691406 Z M 254.632812 245.148438 C 247.578125 258.679688 267.964844 270.941406 275.058594 257.335938 C 282.117188 243.800781 261.730469 231.539062 254.632812 245.148438 Z M 279.027344 97.351562 L 273.695312 98.992188 C 270.113281 100.65625 267.1875 103.109375 264.925781 106.34375 C 263.207031 108.652344 262.160156 111.207031 261.789062 114 C 260.96875 116.664062 260.847656 119.394531 261.421875 122.1875 C 261.804688 125.089844 262.863281 127.679688 264.605469 129.960938 C 265.953125 132.5625 267.886719 134.671875 270.414062 136.289062 C 272.066406 137.136719 273.722656 137.988281 275.378906 138.835938 C 278.921875 140.085938 282.546875 140.402344 286.253906 139.792969 C 288.03125 139.246094 289.8125 138.699219 291.589844 138.152344 C 295.171875 136.488281 298.09375 134.035156 300.359375 130.800781 C 302.078125 128.492188 303.121094 125.941406 303.492188 123.148438 C 304.3125 120.480469 304.433594 117.75 303.859375 114.957031 C 303.480469 112.054688 302.417969 109.464844 300.675781 107.1875 C 299.332031 104.582031 297.394531 102.472656 294.871094 100.855469 C 293.214844 100.007812 291.558594 99.160156 289.90625 98.308594 C 286.359375 97.0625 282.734375 96.742188 279.027344 97.351562 Z M 303.453125 156.269531 C 297.066406 168.519531 315.035156 180.644531 321.484375 168.277344 C 327.871094 156.027344 309.90625 143.902344 303.453125 156.269531 Z M 194.148438 60.230469 C 200.585938 47.890625 182.449219 35.746094 175.953125 48.203125 C 169.515625 60.542969 187.652344 72.6875 194.148438 60.230469 Z M 96.328125 221.03125 C 93.902344 220.613281 91.503906 220.820312 89.132812 221.648438 C 86.605469 222.339844 84.445312 223.59375 82.644531 225.410156 C 80.597656 226.855469 79.039062 228.738281 77.964844 231.058594 C 77.425781 232.566406 76.886719 234.078125 76.347656 235.585938 C 75.652344 238.816406 75.789062 242.011719 76.753906 245.175781 C 77.464844 246.699219 78.175781 248.21875 78.886719 249.742188 C 80.722656 252.59375 83.152344 254.792969 86.164062 256.34375 C 86.382812 256.457031 86.597656 256.589844 86.828125 256.679688 C 89 257.886719 91.308594 258.496094 93.742188 258.507812 C 96.167969 258.929688 98.5625 258.722656 100.933594 257.894531 C 103.460938 257.207031 105.621094 255.957031 107.425781 254.136719 C 109.46875 252.695312 111.027344 250.8125 112.101562 248.492188 C 112.640625 246.984375 113.179688 245.480469 113.71875 243.972656 C 114.417969 240.742188 114.28125 237.546875 113.316406 234.386719 C 112.609375 232.863281 111.898438 231.339844 111.191406 229.820312 C 109.351562 226.96875 106.929688 224.769531 103.917969 223.21875 C 103.707031 223.082031 103.472656 222.976562 103.25 222.859375 C 101.074219 221.652344 98.765625 221.042969 96.328125 221.03125 Z M 96.328125 221.03125 "/></g></g></g><g clip-rule="nonzero" clip-path="url(#fd73d68426)"><g clip-rule="nonzero" clip-path="url(#7640dbcb10)"><g clip-rule="nonzero" clip-path="url(#e9cb7c9ec3)"><path style=" stroke:none;fill-rule:nonzero;fill:#ffffff;fill-opacity:1;" d="M 237.382812 92.597656 C 240.164062 102.890625 224.472656 108.3125 221.640625 97.972656 C 220.851562 95.105469 202.355469 102.667969 198.417969 102.636719 C 189.648438 102.5625 183.597656 96.917969 176.210938 93.128906 C 151.996094 80.703125 131.996094 106.464844 119.234375 123.410156 C 112.773438 131.992188 100.148438 121.121094 106.570312 112.617188 C 122.539062 91.480469 145.21875 66.722656 174.886719 74.65625 C 182.074219 76.578125 187.347656 82.59375 194.136719 84.65625 C 201.867188 87.003906 208.980469 81.15625 216.292969 80.175781 C 225.578125 78.9375 234.855469 83.234375 237.382812 92.597656 Z M 249 87.660156 C 244.039062 97.171875 258.871094 104.710938 263.828125 95.207031 C 268.785156 85.695312 253.957031 78.15625 249 87.660156 Z M 249 87.660156 "/></g></g></g><g clip-rule="nonzero" clip-path="url(#0a7ffe8ccb)"><g clip-rule="nonzero" clip-path="url(#d2433ae5c1)"><g clip-rule="nonzero" clip-path="url(#b99b0ba963)"><path style=" stroke:none;fill-rule:nonzero;fill:#000000;fill-opacity:1;" d="M 322.160156 107.46875 L 322.148438 107.984375 C 321.910156 117.046875 324.300781 125.984375 329.027344 133.71875 L 340.230469 152.046875 C 352.167969 171.582031 348.292969 196.875 331.050781 211.9375 L 316.078125 225.015625 C 306.351562 233.515625 300.550781 245.644531 300.039062 258.554688 L 299.421875 274.285156 C 298.371094 300.933594 275.378906 321.367188 248.792969 319.28125 L 240.425781 318.625 C 231.507812 317.925781 222.578125 319.785156 214.679688 323.988281 L 179.636719 342.632812 C 158.589844 353.832031 132.488281 347.496094 118.925781 327.890625 L 105.121094 307.945312 C 102.664062 304.390625 99.726562 301.191406 96.394531 298.441406 L 64.070312 271.765625 C 48.8125 259.167969 43.078125 238.363281 49.730469 219.726562 L 58.441406 195.332031 C 61.574219 186.550781 62.027344 177.039062 59.738281 168 L 55.128906 149.792969 C 49.832031 128.867188 59.472656 107.023438 78.503906 96.832031 L 115.5 77.03125 C 120.226562 74.5 124.484375 71.179688 128.089844 67.214844 L 142.15625 51.742188 C 159.832031 32.300781 190.015625 31.132812 209.140625 49.152344 C 218.9375 58.378906 232.214844 62.964844 245.617188 61.746094 L 270.9375 59.445312 C 298.941406 56.898438 322.898438 79.359375 322.160156 107.46875 Z M 322.160156 107.46875 "/></g></g></g><g clip-rule="nonzero" clip-path="url(#f1021a9d3a)"><g clip-rule="nonzero" clip-path="url(#69a80904df)"><g clip-rule="nonzero" clip-path="url(#038f8cf5bf)"><path style=" stroke:none;fill-rule:nonzero;fill:#000000;fill-opacity:1;" d="M 287.148438 184.539062 C 291.289062 206.628906 281.25 229.25 268.023438 246.488281 C 253.808594 265.058594 234.578125 279.484375 212.285156 286.835938 C 190.167969 294.132812 165.882812 293.753906 143.929688 285.96875 C 127.945312 280.285156 113.621094 270.480469 102.734375 257.621094 C 99.164062 254.402344 95.882812 250.960938 92.90625 247.160156 C 78.804688 229.078125 70.671875 204.246094 75.925781 181.402344 C 78.570312 169.804688 85.558594 159.117188 96.300781 153.558594 C 106.628906 148.1875 118.507812 148.472656 128.40625 154.703125 C 137.945312 160.6875 144.339844 170.164062 153.109375 177.015625 C 161.222656 183.351562 170.378906 183.769531 179.847656 180.375 C 200.320312 173.085938 214.03125 152.984375 236.25 149.371094 C 259.449219 145.582031 282.777344 161.238281 287.148438 184.539062 Z M 287.148438 184.539062 "/></g></g></g><g clip-rule="nonzero" clip-path="url(#de13791964)"><g clip-rule="nonzero" clip-path="url(#e29bc8e00b)"><g clip-rule="nonzero" clip-path="url(#22e47237a2)"><path style=" stroke:none;fill-rule:nonzero;fill:#000000;fill-opacity:1;" d="M 163.472656 190.621094 C 166.917969 189.640625 170.261719 192.042969 171.222656 195.277344 C 171.675781 196.804688 171.308594 198.769531 170.5 200.113281 C 169.5625 201.675781 168.214844 202.417969 166.566406 203.027344 C 165.160156 203.546875 163.492188 203.792969 161.976562 203.925781 C 160.242188 204.074219 158.503906 204.160156 156.769531 204.003906 C 154.128906 203.765625 151.460938 203.238281 148.96875 202.316406 C 143.515625 200.296875 139.03125 196.855469 135.589844 192.199219 C 133.6875 189.628906 134.921875 185.738281 137.214844 183.957031 C 138.375 183.050781 139.6875 182.625 141.152344 182.570312 C 142.519531 182.519531 144.726562 183.296875 145.601562 184.417969 C 147.878906 187.34375 150.613281 189.480469 154.175781 190.585938 C 154.828125 190.789062 155.496094 190.917969 156.160156 191.066406 C 155.820312 190.976562 155.695312 190.910156 156.609375 191.160156 C 156.566406 191.15625 156.519531 191.148438 156.46875 191.140625 C 156.597656 191.167969 156.722656 191.191406 156.847656 191.226562 C 156.75 191.199219 156.691406 191.183594 156.609375 191.160156 C 156.625 191.164062 156.644531 191.167969 156.660156 191.167969 C 157.136719 191.222656 157.617188 191.261719 158.097656 191.289062 C 158.617188 191.3125 159.128906 191.304688 159.648438 191.316406 C 159.730469 191.3125 159.777344 191.3125 159.835938 191.308594 C 160.085938 191.285156 160.339844 191.257812 160.589844 191.226562 C 161.070312 191.167969 161.554688 191.097656 162.03125 191.015625 C 162.039062 190.984375 163.363281 190.652344 163.472656 190.621094 Z M 194.738281 189.359375 C 194.738281 189.359375 194.742188 189.359375 194.742188 189.359375 C 194.742188 189.359375 194.738281 189.359375 194.738281 189.359375 C 194.703125 189.347656 194.664062 189.347656 194.628906 189.339844 C 194.28125 189.277344 193.933594 189.214844 193.585938 189.152344 C 194.757812 189.316406 195.117188 189.363281 194.558594 189.277344 C 194.21875 189.230469 193.875 189.1875 193.53125 189.144531 C 193.140625 189.074219 192.753906 189 192.363281 188.933594 C 191.53125 188.683594 190.699219 188.65625 189.867188 188.851562 C 189 188.898438 188.191406 189.167969 187.449219 189.652344 C 186.699219 190.070312 186.109375 190.636719 185.667969 191.347656 C 185.121094 191.96875 184.753906 192.695312 184.570312 193.519531 C 184.503906 194.070312 184.433594 194.617188 184.367188 195.164062 C 184.382812 196.339844 184.691406 197.429688 185.292969 198.4375 C 185.636719 198.867188 185.984375 199.300781 186.328125 199.730469 C 187.136719 200.5 188.082031 201.027344 189.160156 201.3125 C 190.085938 201.453125 191.007812 201.59375 191.933594 201.734375 C 191.386719 201.648438 190.84375 201.566406 190.296875 201.484375 C 191.640625 201.910156 192.996094 201.980469 194.359375 201.695312 C 195.480469 201.425781 196.460938 200.894531 197.296875 200.101562 C 198.925781 198.542969 199.621094 196.191406 199.101562 193.996094 C 198.929688 193.132812 198.5625 192.378906 197.996094 191.730469 C 197.5625 191.015625 196.972656 190.453125 196.234375 190.035156 C 195.753906 189.742188 195.257812 189.515625 194.738281 189.359375 Z M 194.738281 189.359375 "/></g></g></g><g clip-rule="nonzero" clip-path="url(#2ae86dd642)"><g clip-rule="nonzero" clip-path="url(#c936856544)"><g clip-rule="nonzero" clip-path="url(#8f72083da1)"><path style=" stroke:none;fill-rule:nonzero;fill:#000000;fill-opacity:1;" d="M 162.996094 120.066406 C 163.988281 120.429688 164.984375 120.792969 165.980469 121.15625 C 167.476562 121.863281 168.695312 122.875 169.640625 124.191406 C 170.828125 125.367188 171.652344 126.777344 172.109375 128.429688 C 172.6875 130.039062 172.832031 131.667969 172.539062 133.316406 C 172.527344 134.933594 172.117188 136.464844 171.300781 137.902344 C 170.289062 139.839844 168.871094 141.410156 167.042969 142.609375 C 166.039062 143.085938 165.035156 143.558594 164.03125 144.035156 C 161.890625 144.707031 159.726562 144.800781 157.539062 144.316406 C 156.542969 143.953125 155.550781 143.589844 154.554688 143.226562 C 153.058594 142.519531 151.839844 141.507812 150.894531 140.191406 C 149.703125 139.015625 148.882812 137.605469 148.425781 135.953125 C 147.84375 134.34375 147.703125 132.714844 147.996094 131.066406 C 148.003906 129.449219 148.417969 127.917969 149.230469 126.480469 C 150.242188 124.542969 151.664062 122.972656 153.488281 121.773438 C 154.496094 121.296875 155.5 120.824219 156.503906 120.347656 C 158.644531 119.675781 160.808594 119.582031 162.996094 120.066406 Z M 228.921875 168.679688 C 221.214844 183.464844 244.640625 194.398438 252.324219 179.664062 C 260.035156 164.878906 236.609375 153.945312 228.921875 168.679688 Z M 165.566406 300.1875 C 165.125 299.988281 164.675781 299.839844 164.222656 299.710938 C 164.171875 299.695312 164.125 299.679688 164.074219 299.660156 C 164.011719 299.648438 163.945312 299.644531 163.882812 299.632812 C 162.914062 299.402344 161.917969 299.3125 160.878906 299.402344 C 160.875 299.402344 160.867188 299.402344 160.863281 299.40625 C 159.773438 299.460938 158.691406 299.660156 157.617188 300.011719 C 156.628906 300.296875 155.753906 300.761719 154.9375 301.3125 C 154.835938 301.359375 154.738281 301.410156 154.636719 301.457031 C 153.671875 302.105469 152.835938 302.863281 152.109375 303.714844 C 151.441406 304.4375 150.875 305.253906 150.449219 306.1875 C 150.097656 307.179688 149.746094 308.175781 149.394531 309.167969 C 148.980469 310.800781 148.996094 312.410156 149.441406 313.996094 C 149.605469 315.671875 150.1875 317.207031 151.191406 318.609375 C 151.894531 319.414062 152.597656 320.21875 153.300781 321.023438 C 154.492188 322.148438 155.859375 322.914062 157.414062 323.324219 C 158.886719 323.988281 160.449219 324.25 162.097656 324.109375 C 163.1875 323.90625 164.273438 323.703125 165.359375 323.5 C 167.476562 322.792969 169.277344 321.609375 170.757812 319.941406 C 172.277344 318.289062 173.191406 316.46875 173.539062 314.488281 C 173.554688 314.441406 173.570312 314.390625 173.582031 314.339844 C 173.859375 313.257812 173.875 312.1875 173.769531 311.125 C 173.761719 310.035156 173.632812 308.953125 173.234375 307.882812 C 173.195312 307.746094 173.113281 307.636719 173.070312 307.503906 C 172.941406 307.121094 172.765625 306.753906 172.589844 306.390625 C 172.40625 306.003906 172.21875 305.621094 171.984375 305.269531 C 171.90625 305.152344 171.871094 305.019531 171.785156 304.902344 C 171.433594 304.496094 171.082031 304.09375 170.730469 303.691406 C 170.441406 303.300781 170.121094 302.945312 169.785156 302.609375 C 169.75 302.566406 169.710938 302.527344 169.675781 302.484375 C 169.589844 302.402344 169.492188 302.332031 169.402344 302.253906 C 169.238281 302.109375 169.070312 301.964844 168.898438 301.832031 C 168.75 301.71875 168.601562 301.617188 168.449219 301.515625 C 168.285156 301.402344 168.121094 301.289062 167.945312 301.1875 C 167.761719 301.082031 167.574219 300.984375 167.382812 300.886719 C 167.273438 300.832031 167.171875 300.765625 167.058594 300.714844 C 167.007812 300.695312 166.957031 300.679688 166.910156 300.660156 C 166.476562 300.472656 166.03125 300.308594 165.566406 300.1875 Z M 249.410156 240.664062 C 242.902344 253.144531 261.703125 264.453125 268.246094 251.902344 C 274.753906 239.421875 255.953125 228.117188 249.410156 240.664062 Z M 271.90625 104.371094 L 266.984375 105.882812 C 263.683594 107.417969 260.988281 109.675781 258.898438 112.660156 C 257.316406 114.792969 256.351562 117.144531 256.007812 119.71875 C 255.253906 122.179688 255.140625 124.699219 255.667969 127.269531 C 256.019531 129.949219 257 132.339844 258.605469 134.4375 C 259.847656 136.839844 261.632812 138.785156 263.960938 140.277344 C 265.488281 141.058594 267.011719 141.839844 268.539062 142.625 C 271.808594 143.777344 275.152344 144.070312 278.570312 143.507812 C 280.210938 143.003906 281.847656 142.5 283.488281 141.996094 C 286.792969 140.460938 289.488281 138.199219 291.574219 135.214844 C 293.160156 133.085938 294.125 130.734375 294.464844 128.15625 C 295.222656 125.695312 295.335938 123.179688 294.804688 120.605469 C 294.453125 117.929688 293.476562 115.539062 291.871094 113.4375 C 290.628906 111.035156 288.84375 109.089844 286.515625 107.601562 C 284.988281 106.816406 283.460938 106.035156 281.9375 105.253906 C 278.667969 104.101562 275.324219 103.804688 271.90625 104.371094 Z M 294.433594 158.703125 C 288.539062 170 305.109375 181.183594 311.058594 169.777344 C 316.949219 158.480469 300.378906 147.296875 294.433594 158.703125 Z M 193.632812 70.136719 C 199.566406 58.753906 182.839844 47.554688 176.847656 59.042969 C 170.914062 70.425781 187.640625 81.625 193.632812 70.136719 Z M 103.421875 218.425781 C 101.183594 218.039062 98.972656 218.230469 96.785156 218.996094 C 94.457031 219.632812 92.460938 220.789062 90.800781 222.464844 C 88.914062 223.796875 87.476562 225.535156 86.484375 227.671875 C 85.988281 229.066406 85.492188 230.457031 84.996094 231.847656 C 84.351562 234.828125 84.476562 237.773438 85.371094 240.691406 C 86.023438 242.09375 86.679688 243.5 87.335938 244.902344 C 89.03125 247.53125 91.269531 249.5625 94.046875 250.992188 C 94.246094 251.09375 94.445312 251.21875 94.65625 251.300781 C 96.664062 252.414062 98.789062 252.976562 101.035156 252.988281 C 103.269531 253.375 105.480469 253.183594 107.667969 252.421875 C 109.996094 251.785156 111.992188 250.632812 113.652344 248.957031 C 115.539062 247.625 116.976562 245.890625 117.96875 243.75 C 118.464844 242.359375 118.960938 240.972656 119.457031 239.582031 C 120.101562 236.601562 119.976562 233.65625 119.085938 230.742188 C 118.433594 229.335938 117.78125 227.933594 117.125 226.53125 C 115.429688 223.902344 113.195312 221.871094 110.417969 220.441406 C 110.222656 220.316406 110.007812 220.21875 109.800781 220.113281 C 107.796875 219 105.667969 218.4375 103.421875 218.425781 Z M 103.421875 218.425781 "/></g></g></g><g clip-rule="nonzero" clip-path="url(#6e30900afc)"><g clip-rule="nonzero" clip-path="url(#73a8413e67)"><g clip-rule="nonzero" clip-path="url(#87677af5be)"><path style=" stroke:none;fill-rule:nonzero;fill:#000000;fill-opacity:1;" d="M 233.5 99.984375 C 236.066406 109.476562 221.597656 114.476562 218.980469 104.941406 C 218.257812 102.296875 201.195312 109.273438 197.566406 109.242188 C 189.480469 109.175781 183.898438 103.96875 177.085938 100.472656 C 154.757812 89.015625 136.3125 112.773438 124.546875 128.398438 C 118.585938 136.3125 106.941406 126.289062 112.867188 118.445312 C 127.589844 98.953125 148.507812 76.121094 175.867188 83.441406 C 182.492188 85.210938 187.359375 90.757812 193.617188 92.660156 C 200.75 94.824219 207.308594 89.433594 214.050781 88.53125 C 222.613281 87.386719 231.171875 91.351562 233.5 99.984375 Z M 244.210938 95.433594 C 239.640625 104.203125 253.316406 111.15625 257.886719 102.390625 C 262.460938 93.621094 248.785156 86.667969 244.210938 95.433594 Z M 244.210938 95.433594 "/></g></g></g><path style=" stroke:none;fill-rule:nonzero;fill:#490894;fill-opacity:1;" d="M 233.066406 126.753906 C 230.589844 130.671875 228.101562 134.574219 225.59375 138.460938 C 222.167969 136.257812 218.152344 135.019531 213.960938 135.019531 C 211.773438 135.019531 209.582031 135.367188 207.480469 136.042969 C 196.925781 139.414062 190.707031 149.476562 192.347656 160.519531 C 193.253906 166.667969 196.984375 171.894531 202.183594 175.136719 C 198.8125 180.363281 195.457031 185.558594 192.074219 190.742188 C 190.777344 192.730469 188.9375 192.960938 186.949219 191.695312 C 178.597656 186.351562 170.230469 181.011719 161.910156 175.609375 C 159.578125 174.097656 159.390625 172.457031 161.058594 169.878906 C 171.742188 153.164062 182.472656 136.460938 193.167969 119.773438 C 196.003906 115.351562 198.785156 110.917969 201.648438 106.527344 C 203.449219 103.777344 204.960938 103.488281 207.742188 105.273438 C 215.703125 110.339844 223.664062 115.4375 231.613281 120.550781 C 234.609375 122.464844 234.953125 123.789062 233.066406 126.753906 "/><g clip-rule="nonzero" clip-path="url(#0936746242)"><path style=" stroke:none;fill-rule:nonzero;fill:#490894;fill-opacity:1;" d="M 211.699219 99.5 C 215.257812 94.042969 219.042969 88.269531 222.800781 82.496094 C 224.386719 80.0625 225.898438 77.597656 227.511719 75.195312 C 229.238281 72.589844 230.578125 72.199219 233.109375 73.785156 C 238.742188 77.3125 244.296875 80.925781 249.871094 84.523438 C 251.988281 85.890625 252.375 87.707031 251.039062 89.808594 C 245.738281 98.160156 240.398438 106.496094 235.140625 114.71875 C 227.351562 109.648438 219.71875 104.695312 211.699219 99.5 "/></g><path style=" stroke:none;fill-rule:nonzero;fill:#490894;fill-opacity:1;" d="M 159.117188 181.875 C 167.066406 186.957031 174.679688 191.824219 182.644531 196.90625 C 180.007812 200.894531 177.332031 205.042969 174.550781 209.117188 C 173.371094 210.84375 171.613281 211.160156 169.871094 210.066406 C 164.011719 206.394531 158.179688 202.679688 152.40625 198.894531 C 150.59375 197.699219 150.175781 195.957031 151.382812 194.027344 C 153.960938 189.9375 156.582031 185.847656 159.117188 181.875 "/><g clip-rule="nonzero" clip-path="url(#0b35ac92a8)"><path style=" stroke:none;fill-rule:nonzero;fill:#490894;fill-opacity:1;" d="M 214.21875 166.019531 C 208.863281 166.105469 204.703125 162.234375 204.617188 157.078125 C 204.5 151.78125 208.289062 147.734375 213.558594 147.605469 C 218.957031 147.488281 222.757812 151.117188 222.875 156.589844 C 223.003906 161.703125 219.074219 165.949219 214.21875 166.019531 Z M 251.179688 290.46875 C 247.710938 287.402344 243.953125 284.664062 239.980469 282.21875 C 237.734375 280.820312 235.371094 279.554688 232.996094 278.375 C 232.261719 278.011719 231.527344 277.640625 230.75 277.277344 C 235.457031 273.191406 240.351562 269.546875 244.226562 265.070312 C 264.644531 241.542969 269.84375 214.992188 258.726562 185.589844 C 253.585938 172.066406 245.089844 161.082031 233.371094 152.542969 C 232.191406 151.695312 231.167969 150.296875 230.503906 148.957031 C 226.546875 140.707031 217.199219 136.546875 208.503906 139.28125 C 199.546875 142.132812 194.320312 150.628906 195.71875 160.015625 C 197.027344 168.757812 205.105469 175.222656 214.464844 175.179688 C 216.136719 175.136719 218.382812 175.179688 219.476562 176.15625 C 233.613281 188.8125 240.109375 204.492188 236.105469 223.371094 C 230.433594 250.238281 206.503906 266.164062 179.417969 261.628906 C 171.613281 260.289062 164.558594 257.09375 158.554688 251.261719 C 161.046875 251.261719 163.492188 251.332031 165.984375 251.21875 C 171.054688 251.058594 174.035156 248.28125 174.035156 243.875 C 173.988281 239.253906 170.921875 236.472656 165.738281 236.472656 C 158.351562 236.429688 150.953125 236.429688 143.566406 236.429688 C 133.429688 236.429688 123.308594 236.386719 113.183594 236.472656 C 108.5625 236.515625 105.007812 239.855469 105.007812 243.945312 C 105.007812 248.078125 108.117188 250.972656 112.898438 251.21875 C 115.386719 251.332031 117.921875 251.101562 120.371094 251.375 C 121.507812 251.503906 122.933594 252.3125 123.507812 253.21875 C 128.90625 262.289062 136.050781 269.632812 144.632812 275.636719 C 145.164062 276.039062 145.683594 276.414062 146.300781 276.90625 C 145.410156 277.308594 144.5 277.769531 143.636719 278.171875 C 139.964844 280 136.453125 282.046875 133.070312 284.335938 C 131.429688 285.472656 129.800781 286.667969 128.246094 287.890625 C 127.394531 288.582031 126.488281 289.402344 125.597656 290.179688 C 124.949219 290.742188 124.042969 291.203125 123.925781 292.09375 C 123.796875 293.203125 123.953125 294.457031 123.925781 295.609375 C 123.925781 298.011719 123.882812 300.433594 123.882812 302.878906 L 253.210938 302.878906 L 253.210938 292.585938 C 253.183594 292.511719 253.183594 292.425781 253.140625 292.382812 C 252.679688 291.5625 251.871094 291.117188 251.179688 290.46875 "/></g></g></g></g></svg>